<svg id="Layer_1" data-name="Layer 1" xmlns="http://www.w3.org/2000/svg" viewBox="0 0 900 215"><defs><style>.cls-1{fill:#004a7c;}.cls-2{fill:#43b02a;}.cls-3{fill:#2b3a42;}.cls-4{fill:#00a3e0;}.cls-5{fill:none;stroke:#caced0;stroke-linecap:round;stroke-miterlimit:10;stroke-width:3px;}.cls-6{fill:#00bfb3;}</style></defs><title>1.2.2 RWAS_Expand_Your_Study_Options_0519_edits2</title><path class="cls-1" d="M342.67,63.73h-7.4V50.88h7.4v2.23H338v2.83h4.36v2.23H338v3.31h4.68Z"/><path class="cls-1" d="M347,58.71,343.8,53.9h3.05l1.9,3.14,1.93-3.14h3l-3.2,4.81,3.35,5h-3.05l-2.07-3.36-2.07,3.36h-3Z"/><path class="cls-1" d="M360.65,53.72A3.25,3.25,0,0,1,363.33,55a6,6,0,0,1,1,3.79,5.92,5.92,0,0,1-1.06,3.82,3.38,3.38,0,0,1-2.72,1.29,3.28,3.28,0,0,1-1.69-.38,3.92,3.92,0,0,1-1-.88h-.14a8.33,8.33,0,0,1,.14,1.44v4h-2.68V53.9h2.18l.38,1.28h.12a3.57,3.57,0,0,1,1.06-1A3.13,3.13,0,0,1,360.65,53.72Zm-.86,2.15a1.65,1.65,0,0,0-1.48.65,3.7,3.7,0,0,0-.45,2v.29a4.63,4.63,0,0,0,.42,2.19,1.61,1.61,0,0,0,1.54.76,1.45,1.45,0,0,0,1.36-.76,4.43,4.43,0,0,0,.44-2.21C361.62,56.83,361,55.87,359.79,55.87Z"/><path class="cls-1" d="M370.43,53.71a4.69,4.69,0,0,1,3,.85,3.18,3.18,0,0,1,1.05,2.62v6.55h-1.87l-.52-1.33h-.07a4.15,4.15,0,0,1-1.34,1.15,4.24,4.24,0,0,1-1.92.36,3.21,3.21,0,0,1-2.18-.75,3,3,0,0,1-.86-2.36,2.59,2.59,0,0,1,1.09-2.31,6.5,6.5,0,0,1,3.3-.82l1.71-.06v-.43a1.43,1.43,0,0,0-.41-1.13,1.62,1.62,0,0,0-1.12-.36,5.16,5.16,0,0,0-1.41.2,10.82,10.82,0,0,0-1.36.52l-.89-1.82a7.84,7.84,0,0,1,1.75-.64A8.4,8.4,0,0,1,370.43,53.71Zm1.42,5.47-1.05,0a3,3,0,0,0-1.8.47,1.45,1.45,0,0,0-.5,1.14,1,1,0,0,0,.36.87,1.59,1.59,0,0,0,.94.26,2.14,2.14,0,0,0,1.45-.51,1.81,1.81,0,0,0,.6-1.45Z"/><path class="cls-1" d="M382.66,53.72a3.65,3.65,0,0,1,2.54.86,3.49,3.49,0,0,1,1,2.74v6.41h-2.69V58a2.75,2.75,0,0,0-.37-1.59,1.38,1.38,0,0,0-1.21-.53,1.73,1.73,0,0,0-1.67.83,5.19,5.19,0,0,0-.45,2.41v4.62h-2.69V53.9h2.06l.36,1.26h.14a2.65,2.65,0,0,1,1.29-1.09A4.38,4.38,0,0,1,382.66,53.72Z"/><path class="cls-1" d="M391.84,63.91a3.29,3.29,0,0,1-2.67-1.28,6,6,0,0,1-1-3.79,6,6,0,0,1,1-3.82,3.37,3.37,0,0,1,2.74-1.3,3.27,3.27,0,0,1,1.74.42,3.21,3.21,0,0,1,1.08,1h.09c0-.19-.08-.47-.12-.83a8.36,8.36,0,0,1-.07-1.13V50.05h2.68V63.73h-2.06l-.52-1.28h-.1a3.43,3.43,0,0,1-1.07,1A3.19,3.19,0,0,1,391.84,63.91Zm.94-2.14a1.74,1.74,0,0,0,1.55-.66,3.63,3.63,0,0,0,.48-2v-.29a4.36,4.36,0,0,0-.44-2.18,1.71,1.71,0,0,0-1.63-.77,1.57,1.57,0,0,0-1.38.77,4,4,0,0,0-.51,2.2,3.78,3.78,0,0,0,.51,2.17A1.61,1.61,0,0,0,392.78,61.77Z"/><path class="cls-1" d="M403,53.9H406l1.86,5.53a5,5,0,0,1,.21.83,7.55,7.55,0,0,1,.11.88h.06a7.37,7.37,0,0,1,.14-.88,8.56,8.56,0,0,1,.23-.83l1.82-5.53h2.88L409.12,65a4.85,4.85,0,0,1-1.63,2.3,4.11,4.11,0,0,1-2.47.76,5.91,5.91,0,0,1-.79,0l-.58-.1V65.78l.47.08a5.68,5.68,0,0,0,.59,0,1.77,1.77,0,0,0,1.34-.51,3.3,3.3,0,0,0,.73-1.23l.17-.49Z"/><path class="cls-1" d="M423.43,58.8a5.21,5.21,0,0,1-1.28,3.78,4.64,4.64,0,0,1-3.5,1.33,5,5,0,0,1-2.44-.59,4.23,4.23,0,0,1-1.69-1.74,5.92,5.92,0,0,1-.61-2.78A5.17,5.17,0,0,1,415.19,55a4.65,4.65,0,0,1,3.51-1.32,4.91,4.91,0,0,1,2.45.6,4.16,4.16,0,0,1,1.67,1.73A5.67,5.67,0,0,1,423.43,58.8Zm-6.78,0a4.14,4.14,0,0,0,.48,2.21,2,2,0,0,0,3.09,0,4.14,4.14,0,0,0,.48-2.21,4,4,0,0,0-.48-2.19,1.73,1.73,0,0,0-1.56-.73,1.7,1.7,0,0,0-1.53.73A4,4,0,0,0,416.65,58.8Z"/><path class="cls-1" d="M434.49,53.9v9.83h-2.06l-.36-1.26h-.14a2.67,2.67,0,0,1-1.29,1.1,4.38,4.38,0,0,1-1.73.34,3.65,3.65,0,0,1-2.54-.85,3.52,3.52,0,0,1-1-2.75V53.9h2.69v5.75a2.77,2.77,0,0,0,.37,1.59,1.41,1.41,0,0,0,1.21.53,1.71,1.71,0,0,0,1.67-.84,5.15,5.15,0,0,0,.45-2.4V53.9Z"/><path class="cls-1" d="M442.6,53.72l.47,0a2,2,0,0,1,.43.06l-.19,2.52a2.62,2.62,0,0,0-.38-.07l-.42,0a3.66,3.66,0,0,0-1.31.24,2.19,2.19,0,0,0-1,.78,2.55,2.55,0,0,0-.38,1.48v5h-2.69V53.9h2l.39,1.66h.13a4.08,4.08,0,0,1,1.19-1.3A2.9,2.9,0,0,1,442.6,53.72Z"/><path class="cls-1" d="M456.46,60.82a2.71,2.71,0,0,1-1,2.29,5.1,5.1,0,0,1-3.14.8,10,10,0,0,1-1.76-.13,7.36,7.36,0,0,1-1.48-.44V61.12a10.75,10.75,0,0,0,1.71.6,6.91,6.91,0,0,0,1.62.23,2.1,2.1,0,0,0,1.12-.23.74.74,0,0,0,.34-.62.82.82,0,0,0-.14-.45,1.8,1.8,0,0,0-.58-.45c-.3-.16-.77-.38-1.41-.64a10,10,0,0,1-1.52-.79,2.48,2.48,0,0,1-.87-.93,3,3,0,0,1-.29-1.38,2.29,2.29,0,0,1,1.06-2.05,5.13,5.13,0,0,1,2.83-.69,8.31,8.31,0,0,1,1.75.18,8,8,0,0,1,1.71.6l-.81,1.92c-.48-.2-.94-.37-1.37-.51a4.24,4.24,0,0,0-1.32-.21c-.79,0-1.18.22-1.18.65a.68.68,0,0,0,.15.43,1.84,1.84,0,0,0,.59.4c.3.14.73.34,1.31.58a9.48,9.48,0,0,1,1.46.71,2.68,2.68,0,0,1,.94.92A2.8,2.8,0,0,1,456.46,60.82Z"/><path class="cls-1" d="M462.51,61.77a4.94,4.94,0,0,0,.87-.08,5,5,0,0,0,.82-.23v2a5,5,0,0,1-1.07.33,7.5,7.5,0,0,1-1.39.12,4,4,0,0,1-1.58-.29,2.22,2.22,0,0,1-1.09-1,4,4,0,0,1-.41-2V55.92h-1.28V54.79l1.48-.9.77-2.07h1.71V53.9h2.76v2h-2.76v4.73a1,1,0,0,0,.33.84A1.2,1.2,0,0,0,462.51,61.77Z"/><path class="cls-1" d="M475,53.9v9.83h-2l-.36-1.26h-.14a2.76,2.76,0,0,1-1.29,1.1,4.46,4.46,0,0,1-1.74.34,3.68,3.68,0,0,1-2.54-.85,3.55,3.55,0,0,1-.95-2.75V53.9h2.68v5.75a2.76,2.76,0,0,0,.38,1.59,1.38,1.38,0,0,0,1.21.53,1.72,1.72,0,0,0,1.67-.84,5.15,5.15,0,0,0,.45-2.4V53.9Z"/><path class="cls-1" d="M480.76,63.91a3.29,3.29,0,0,1-2.67-1.28,6,6,0,0,1-1-3.79A6,6,0,0,1,478.1,55a3.37,3.37,0,0,1,2.74-1.3,3.27,3.27,0,0,1,1.74.42,3.21,3.21,0,0,1,1.08,1h.09c0-.19-.08-.47-.12-.83a8.35,8.35,0,0,1-.08-1.13V50.05h2.69V63.73h-2.06l-.52-1.28h-.11a3.4,3.4,0,0,1-1.06,1A3.19,3.19,0,0,1,480.76,63.91Zm.94-2.14a1.74,1.74,0,0,0,1.55-.66,3.63,3.63,0,0,0,.48-2v-.29a4.36,4.36,0,0,0-.44-2.18,1.71,1.71,0,0,0-1.63-.77,1.57,1.57,0,0,0-1.38.77,4,4,0,0,0-.51,2.2,3.78,3.78,0,0,0,.51,2.17A1.61,1.61,0,0,0,481.7,61.77Z"/><path class="cls-1" d="M487.46,53.9h2.93l1.86,5.53a5,5,0,0,1,.21.83,7.55,7.55,0,0,1,.11.88h.06a7.37,7.37,0,0,1,.14-.88,8.56,8.56,0,0,1,.23-.83l1.82-5.53h2.88L493.54,65a4.85,4.85,0,0,1-1.63,2.3,4.11,4.11,0,0,1-2.47.76,5.91,5.91,0,0,1-.79,0l-.58-.1V65.78l.47.08a5.68,5.68,0,0,0,.59,0,1.77,1.77,0,0,0,1.34-.51,3.3,3.3,0,0,0,.73-1.23l.17-.49Z"/><path class="cls-1" d="M512.35,58.8a5.26,5.26,0,0,1-1.28,3.78,4.64,4.64,0,0,1-3.5,1.33,5,5,0,0,1-2.44-.59,4.23,4.23,0,0,1-1.69-1.74,5.92,5.92,0,0,1-.61-2.78A5.17,5.17,0,0,1,504.11,55a4.65,4.65,0,0,1,3.51-1.32,4.91,4.91,0,0,1,2.45.6,4.16,4.16,0,0,1,1.67,1.73A5.67,5.67,0,0,1,512.35,58.8Zm-6.78,0a4.14,4.14,0,0,0,.48,2.21,2,2,0,0,0,3.09,0,4.14,4.14,0,0,0,.48-2.21,4,4,0,0,0-.48-2.19,1.74,1.74,0,0,0-1.56-.73,1.7,1.7,0,0,0-1.53.73A4,4,0,0,0,505.57,58.8Z"/><path class="cls-1" d="M519.86,53.72A3.26,3.26,0,0,1,522.54,55a6,6,0,0,1,1,3.79,6,6,0,0,1-1.06,3.82,3.38,3.38,0,0,1-2.72,1.29,3.32,3.32,0,0,1-1.7-.38,3.86,3.86,0,0,1-1-.88h-.14a8.33,8.33,0,0,1,.14,1.44v4h-2.68V53.9h2.17l.38,1.28h.13a3.57,3.57,0,0,1,1.06-1A3.1,3.1,0,0,1,519.86,53.72ZM519,55.87a1.64,1.64,0,0,0-1.47.65,3.7,3.7,0,0,0-.45,2v.29a4.63,4.63,0,0,0,.42,2.19,1.6,1.6,0,0,0,1.54.76,1.46,1.46,0,0,0,1.36-.76,4.54,4.54,0,0,0,.44-2.21C520.83,56.83,520.22,55.87,519,55.87Z"/><path class="cls-1" d="M529.74,61.77a4.94,4.94,0,0,0,.87-.08,5,5,0,0,0,.82-.23v2a5,5,0,0,1-1.07.33,7.5,7.5,0,0,1-1.39.12,3.94,3.94,0,0,1-1.58-.29,2.24,2.24,0,0,1-1.1-1,4,4,0,0,1-.4-2V55.92h-1.28V54.79l1.48-.9.77-2.07h1.71V53.9h2.76v2h-2.76v4.73a1,1,0,0,0,.33.84A1.2,1.2,0,0,0,529.74,61.77Z"/><path class="cls-1" d="M534.58,50.05a1.91,1.91,0,0,1,1,.28,1.14,1.14,0,0,1,.43,1,1.12,1.12,0,0,1-.43,1,1.83,1.83,0,0,1-1,.29,1.81,1.81,0,0,1-1-.29,1.14,1.14,0,0,1-.42-1,1.16,1.16,0,0,1,.42-1A1.89,1.89,0,0,1,534.58,50.05Zm1.34,3.85v9.83h-2.69V53.9Z"/><path class="cls-1" d="M547.47,58.8a5.22,5.22,0,0,1-1.29,3.78,4.61,4.61,0,0,1-3.5,1.33,5,5,0,0,1-2.44-.59,4.27,4.27,0,0,1-1.68-1.74A5.8,5.8,0,0,1,538,58.8,5.13,5.13,0,0,1,539.23,55a4.65,4.65,0,0,1,3.51-1.32,4.85,4.85,0,0,1,2.44.6,4.19,4.19,0,0,1,1.68,1.73A5.67,5.67,0,0,1,547.47,58.8Zm-6.79,0a4.14,4.14,0,0,0,.48,2.21,1.73,1.73,0,0,0,1.56.74,1.7,1.7,0,0,0,1.54-.74,4.15,4.15,0,0,0,.47-2.21,4.05,4.05,0,0,0-.47-2.19,1.74,1.74,0,0,0-1.56-.73,1.72,1.72,0,0,0-1.54.73A4,4,0,0,0,540.68,58.8Z"/><path class="cls-1" d="M555.09,53.72a3.64,3.64,0,0,1,2.53.86,3.49,3.49,0,0,1,1,2.74v6.41h-2.69V58a2.75,2.75,0,0,0-.37-1.59,1.38,1.38,0,0,0-1.21-.53,1.73,1.73,0,0,0-1.67.83,5.19,5.19,0,0,0-.45,2.41v4.62h-2.68V53.9h2l.36,1.26h.14a2.65,2.65,0,0,1,1.29-1.09A4.4,4.4,0,0,1,555.09,53.72Z"/><path class="cls-1" d="M568,60.82a2.71,2.71,0,0,1-1,2.29,5.14,5.14,0,0,1-3.15.8,10,10,0,0,1-1.76-.13,7.76,7.76,0,0,1-1.48-.44V61.12a10.75,10.75,0,0,0,1.71.6,7.06,7.06,0,0,0,1.62.23,2.1,2.1,0,0,0,1.12-.23.71.71,0,0,0,.34-.62.81.81,0,0,0-.13-.45,1.87,1.87,0,0,0-.59-.45c-.3-.16-.77-.38-1.4-.64a9.54,9.54,0,0,1-1.52-.79,2.6,2.6,0,0,1-.88-.93,3,3,0,0,1-.28-1.38,2.27,2.27,0,0,1,1.06-2.05,5.12,5.12,0,0,1,2.82-.69,8.17,8.17,0,0,1,1.75.18,8,8,0,0,1,1.71.6l-.81,1.92c-.48-.2-.94-.37-1.37-.51a4.22,4.22,0,0,0-1.31-.21c-.79,0-1.19.22-1.19.65a.68.68,0,0,0,.15.43,1.79,1.79,0,0,0,.6.4c.29.14.73.34,1.3.58a9,9,0,0,1,1.46.71,2.71,2.71,0,0,1,.95.92A2.8,2.8,0,0,1,568,60.82Z"/><path class="cls-2" d="M819.9,112.88H830v3.93H775.7v-3.93h44.2Zm-.59-5H787.47c2.06-9.81,9-14.29,15.92-14.29s13.86,4.48,15.92,14.29m-15.92-18.6a9,9,0,1,1,9-9,9,9,0,0,1-9,9M830,63.81v44H823.3a24,24,0,0,0-5.47-11.78A19.13,19.13,0,0,0,810.58,91a12.9,12.9,0,1,0-14.38,0A19,19,0,0,0,789,96.06a23.87,23.87,0,0,0-5.48,11.78h-7.87v-44Zm-58.28,58.28h62.21V59.89H771.68Z"/><path class="cls-3" d="M41.84,133.09a4,4,0,0,1,2.43.61,2.22,2.22,0,0,1,.78,1.86,2.34,2.34,0,0,1-.24,1.11,2.16,2.16,0,0,1-.63.74,3.61,3.61,0,0,1-.81.45l2.4,3.8H44.29l-2.07-3.47H40.73v3.47H39.44v-8.57Zm-.09,1.11h-1v2.91h1.08a2.24,2.24,0,0,0,1.46-.38,1.37,1.37,0,0,0,.45-1.12,1.22,1.22,0,0,0-.48-1.09A2.66,2.66,0,0,0,41.75,134.2Z"/><path class="cls-3" d="M49.4,135.07a2.67,2.67,0,0,1,1.82.54,2.11,2.11,0,0,1,.6,1.67v4.38h-.9l-.25-.9h-.05a2.82,2.82,0,0,1-.88.77,2.67,2.67,0,0,1-1.28.25,2.23,2.23,0,0,1-1.45-.47,1.84,1.84,0,0,1-.58-1.49,1.7,1.7,0,0,1,.75-1.5,4.36,4.36,0,0,1,2.29-.56l1.1,0v-.36a1.29,1.29,0,0,0-.32-1,1.34,1.34,0,0,0-.91-.29,3.31,3.31,0,0,0-1,.14,6.72,6.72,0,0,0-.88.35l-.4-.92a5.11,5.11,0,0,1,1-.41A5,5,0,0,1,49.4,135.07Zm1.16,3.48-.86,0a2.78,2.78,0,0,0-1.53.37,1,1,0,0,0-.43.89.86.86,0,0,0,.3.73,1.27,1.27,0,0,0,.78.23,1.84,1.84,0,0,0,1.24-.42,1.53,1.53,0,0,0,.5-1.26Z"/><path class="cls-3" d="M57.05,135.07a2.41,2.41,0,0,1,1.73.57,2.38,2.38,0,0,1,.6,1.81v4.21H58.12v-4c0-1-.44-1.51-1.33-1.51a1.48,1.48,0,0,0-1.36.58,3.2,3.2,0,0,0-.38,1.7v3.26H53.78v-6.47h1l.18.87H55a1.85,1.85,0,0,1,.86-.75A2.82,2.82,0,0,1,57.05,135.07Z"/><path class="cls-3" d="M63.56,141.78a2.35,2.35,0,0,1-1.89-.84,4.79,4.79,0,0,1,0-5,2.38,2.38,0,0,1,1.89-.85,2.27,2.27,0,0,1,1.2.28,2.48,2.48,0,0,1,.76.67h.07c0-.11,0-.28-.06-.49s0-.41,0-.57v-2.42h1.28v9.12h-1l-.22-.86h-.06a2.34,2.34,0,0,1-.74.69A2.31,2.31,0,0,1,63.56,141.78Zm.3-1a1.53,1.53,0,0,0,1.31-.52,2.74,2.74,0,0,0,.39-1.57v-.19a3.42,3.42,0,0,0-.36-1.74,1.46,1.46,0,0,0-1.35-.6,1.29,1.29,0,0,0-1.18.62,3.26,3.26,0,0,0-.4,1.73,3,3,0,0,0,.4,1.68A1.34,1.34,0,0,0,63.86,140.74Z"/><path class="cls-3" d="M74.48,138.42a3.47,3.47,0,0,1-.83,2.48,2.91,2.91,0,0,1-2.23.88,3.09,3.09,0,0,1-1.56-.39,2.73,2.73,0,0,1-1.06-1.14,3.93,3.93,0,0,1-.39-1.83,3.51,3.51,0,0,1,.81-2.48,2.92,2.92,0,0,1,2.23-.87,3.07,3.07,0,0,1,1.57.39,2.75,2.75,0,0,1,1.07,1.14A3.86,3.86,0,0,1,74.48,138.42Zm-4.77,0a3,3,0,0,0,.42,1.7,1.46,1.46,0,0,0,1.31.62,1.49,1.49,0,0,0,1.32-.62,3.73,3.73,0,0,0,0-3.4,1.52,1.52,0,0,0-1.33-.59,1.49,1.49,0,0,0-1.31.59A3,3,0,0,0,69.71,138.42Z"/><path class="cls-3" d="M83.33,135.07a2.2,2.2,0,0,1,1.65.57,2.5,2.5,0,0,1,.55,1.81v4.21H84.26v-4c0-1-.41-1.5-1.21-1.5a1.39,1.39,0,0,0-1.24.53,2.66,2.66,0,0,0-.37,1.53v3.48H80.18v-4q0-1.5-1.23-1.5a1.33,1.33,0,0,0-1.25.58,3.43,3.43,0,0,0-.34,1.7v3.26H76.09v-6.47h1l.18.87h.08a1.83,1.83,0,0,1,.81-.75,2.51,2.51,0,0,1,1.08-.24,1.94,1.94,0,0,1,2,1.05h.1a1.83,1.83,0,0,1,.86-.79A2.76,2.76,0,0,1,83.33,135.07Z"/><path class="cls-3" d="M88.12,132.73a.85.85,0,0,1,.51.17.85.85,0,0,1,0,1.12.79.79,0,0,1-.51.18.76.76,0,0,1-.51-.18.82.82,0,0,1,0-1.12A.8.8,0,0,1,88.12,132.73Zm.63,2.46v6.47H87.47v-6.47Z"/><path class="cls-3" d="M95,141.66H90.16v-.8l3.34-4.68H90.37v-1h4.54v.9l-3.26,4.59H95Z"/><path class="cls-3" d="M99,135.07a2.56,2.56,0,0,1,2,.79,3,3,0,0,1,.74,2.14v.7H97.37a2.24,2.24,0,0,0,.52,1.52,1.85,1.85,0,0,0,1.4.53,4.6,4.6,0,0,0,1.11-.12,5.14,5.14,0,0,0,1-.34v1.06a4.53,4.53,0,0,1-1,.33,5.77,5.77,0,0,1-1.18.1,3.52,3.52,0,0,1-1.65-.37,2.61,2.61,0,0,1-1.12-1.11,3.68,3.68,0,0,1-.41-1.82,4.29,4.29,0,0,1,.37-1.85,2.69,2.69,0,0,1,1-1.16A3,3,0,0,1,99,135.07Zm0,1a1.42,1.42,0,0,0-1.1.44,2.06,2.06,0,0,0-.48,1.26h3a2.06,2.06,0,0,0-.36-1.23A1.27,1.27,0,0,0,99,136.06Z"/><path class="cls-3" d="M105.52,141.78a2.33,2.33,0,0,1-1.88-.84,3.75,3.75,0,0,1-.71-2.5,3.83,3.83,0,0,1,.72-2.52,2.38,2.38,0,0,1,1.89-.85,2.27,2.27,0,0,1,1.2.28,2.37,2.37,0,0,1,.76.67h.07c0-.11,0-.28-.06-.49s0-.41,0-.57v-2.42h1.27v9.12h-1l-.21-.86h-.06a2.5,2.5,0,0,1-.75.69A2.28,2.28,0,0,1,105.52,141.78Zm.3-1a1.53,1.53,0,0,0,1.31-.52,2.59,2.59,0,0,0,.39-1.57v-.19a3.42,3.42,0,0,0-.36-1.74,1.46,1.46,0,0,0-1.35-.6,1.3,1.3,0,0,0-1.18.62,3.26,3.26,0,0,0-.39,1.73,3,3,0,0,0,.39,1.68A1.35,1.35,0,0,0,105.82,140.74Z"/><path class="cls-3" d="M117.66,134.09a2.43,2.43,0,0,0-2,.88,3.66,3.66,0,0,0-.73,2.42,3.86,3.86,0,0,0,.67,2.4,2.42,2.42,0,0,0,2,.87,5.22,5.22,0,0,0,1.06-.1,10.63,10.63,0,0,0,1-.27v1.12a5.23,5.23,0,0,1-1,.28,7.33,7.33,0,0,1-1.22.09,4,4,0,0,1-2.19-.55,3.26,3.26,0,0,1-1.3-1.53,5.93,5.93,0,0,1-.43-2.32,5.18,5.18,0,0,1,.48-2.29,3.58,3.58,0,0,1,1.38-1.55,4.17,4.17,0,0,1,2.24-.57,5.86,5.86,0,0,1,1.26.14,5.1,5.1,0,0,1,1.14.39l-.48,1.08a7.32,7.32,0,0,0-.9-.34A3.49,3.49,0,0,0,117.66,134.09Z"/><path class="cls-3" d="M122.73,141.66h-1.27v-9.12h1.27Z"/><path class="cls-3" d="M125.37,132.73a.8.8,0,0,1,.5.17.82.82,0,0,1,0,1.12.75.75,0,0,1-.5.18.8.8,0,0,1-.52-.18.85.85,0,0,1,0-1.12A.85.85,0,0,1,125.37,132.73Zm.62,2.46v6.47h-1.27v-6.47Z"/><path class="cls-3" d="M131.26,135.07a2.42,2.42,0,0,1,1.73.57,2.38,2.38,0,0,1,.6,1.81v4.21h-1.26v-4c0-1-.45-1.51-1.33-1.51a1.51,1.51,0,0,0-1.37.58,3.2,3.2,0,0,0-.37,1.7v3.26H128v-6.47h1l.18.87h.07a1.9,1.9,0,0,1,.86-.75A2.87,2.87,0,0,1,131.26,135.07Z"/><path class="cls-3" d="M136.19,132.73a.85.85,0,0,1,.51.17.85.85,0,0,1,0,1.12.79.79,0,0,1-.51.18.76.76,0,0,1-.51-.18.82.82,0,0,1,0-1.12A.8.8,0,0,1,136.19,132.73Zm.63,2.46v6.47h-1.28v-6.47Z"/><path class="cls-3" d="M141.41,141.78a3,3,0,0,1-2.16-.8,3.4,3.4,0,0,1-.81-2.51,4.23,4.23,0,0,1,.39-1.95,2.55,2.55,0,0,1,1.09-1.09,3.45,3.45,0,0,1,1.59-.36,4.6,4.6,0,0,1,1,.11,3.65,3.65,0,0,1,.79.26l-.39,1-.7-.23a3.12,3.12,0,0,0-.72-.1c-1.17,0-1.76.77-1.76,2.31a2.78,2.78,0,0,0,.44,1.68,1.48,1.48,0,0,0,1.27.57,3.41,3.41,0,0,0,1.71-.43v1.1a2.46,2.46,0,0,1-.75.3A4.11,4.11,0,0,1,141.41,141.78Z"/><path class="cls-3" d="M147.2,135.07a2.65,2.65,0,0,1,1.81.54,2.08,2.08,0,0,1,.61,1.67v4.38h-.9l-.25-.9h-.05a2.93,2.93,0,0,1-.88.77,2.7,2.7,0,0,1-1.28.25,2.23,2.23,0,0,1-1.45-.47,1.8,1.8,0,0,1-.58-1.49,1.7,1.7,0,0,1,.75-1.5,4.34,4.34,0,0,1,2.29-.56l1.1,0v-.36a1.09,1.09,0,0,0-1.23-1.29,3.31,3.31,0,0,0-.95.14,6.2,6.2,0,0,0-.88.35l-.41-.92a5.6,5.6,0,0,1,1-.41A5.1,5.1,0,0,1,147.2,135.07Zm1.16,3.48-.86,0A2.78,2.78,0,0,0,146,139a1,1,0,0,0-.43.89.86.86,0,0,0,.3.73,1.27,1.27,0,0,0,.78.23,1.84,1.84,0,0,0,1.24-.42,1.56,1.56,0,0,0,.5-1.26Z"/><path class="cls-3" d="M152.85,141.66h-1.28v-9.12h1.28Z"/><path class="cls-3" d="M37.39,156.06H36.1v-7.45H33.53v-1.12H40v1.12H37.39Z"/><path class="cls-3" d="M43.73,149.47a4,4,0,0,1,.71.06l-.14,1.19a2.25,2.25,0,0,0-.64-.08,1.83,1.83,0,0,0-.92.24,1.78,1.78,0,0,0-.67.69,2.06,2.06,0,0,0-.26,1.08v3.41H40.54v-6.47h1l.17,1.15h0a3.07,3.07,0,0,1,.8-.89A1.93,1.93,0,0,1,43.73,149.47Z"/><path class="cls-3" d="M46.28,147.13a.82.82,0,0,1,.51.17.85.85,0,0,1,0,1.12.78.78,0,0,1-.51.18.76.76,0,0,1-.51-.18.82.82,0,0,1,0-1.12A.8.8,0,0,1,46.28,147.13Zm.63,2.46v6.47H45.64v-6.47Z"/><path class="cls-3" d="M51.41,149.47a2.67,2.67,0,0,1,1.82.54,2.11,2.11,0,0,1,.6,1.67v4.38h-.9l-.25-.9h0a2.82,2.82,0,0,1-.88.77,2.67,2.67,0,0,1-1.28.25,2.23,2.23,0,0,1-1.45-.47,1.84,1.84,0,0,1-.58-1.49,1.7,1.7,0,0,1,.75-1.5,4.36,4.36,0,0,1,2.29-.56l1.1,0v-.36a1.29,1.29,0,0,0-.32-1,1.34,1.34,0,0,0-.91-.29,3.31,3.31,0,0,0-1,.14,6.72,6.72,0,0,0-.88.35l-.4-.92a5.11,5.11,0,0,1,1.05-.41A5,5,0,0,1,51.41,149.47ZM52.57,153l-.86,0a2.78,2.78,0,0,0-1.53.37,1,1,0,0,0-.43.89.86.86,0,0,0,.3.73,1.27,1.27,0,0,0,.78.23,1.84,1.84,0,0,0,1.24-.42,1.53,1.53,0,0,0,.5-1.26Z"/><path class="cls-3" d="M57.06,156.06H55.79v-9.12h1.27Z"/><path class="cls-3" d="M63.35,154.24a1.67,1.67,0,0,1-.69,1.45,3.29,3.29,0,0,1-1.94.49,5.6,5.6,0,0,1-1.17-.1,3.11,3.11,0,0,1-.89-.3v-1.11a5.49,5.49,0,0,0,1,.36,4,4,0,0,0,1.12.17,1.8,1.8,0,0,0,1-.23.72.72,0,0,0,.32-.61A.65.65,0,0,0,62,154a1.26,1.26,0,0,0-.45-.36,6.38,6.38,0,0,0-1-.43,6.81,6.81,0,0,1-1-.49,1.93,1.93,0,0,1-.66-.6,1.6,1.6,0,0,1-.23-.88,1.46,1.46,0,0,1,.68-1.29,3.2,3.2,0,0,1,1.8-.45,4.82,4.82,0,0,1,1.1.12,5.31,5.31,0,0,1,1,.34l-.42,1a8.14,8.14,0,0,0-.87-.31,3.37,3.37,0,0,0-.9-.12c-.78,0-1.17.23-1.17.68a.63.63,0,0,0,.14.4,1.41,1.41,0,0,0,.48.33,9.09,9.09,0,0,0,1,.41,7,7,0,0,1,1,.48,1.87,1.87,0,0,1,.65.59A1.57,1.57,0,0,1,63.35,154.24Z"/><path class="cls-3" d="M70.49,149.47a2.63,2.63,0,0,1,1.81.54,2.08,2.08,0,0,1,.61,1.67v4.38H72l-.25-.9h-.05a2.82,2.82,0,0,1-.88.77,2.7,2.7,0,0,1-1.28.25,2.23,2.23,0,0,1-1.45-.47,1.84,1.84,0,0,1-.58-1.49,1.7,1.7,0,0,1,.75-1.5,4.34,4.34,0,0,1,2.29-.56l1.1,0v-.36a1.09,1.09,0,0,0-1.23-1.29,3.31,3.31,0,0,0-1,.14,6.72,6.72,0,0,0-.88.35l-.4-.92a5.11,5.11,0,0,1,1-.41A5,5,0,0,1,70.49,149.47ZM71.65,153l-.86,0a2.78,2.78,0,0,0-1.53.37,1,1,0,0,0-.43.89.86.86,0,0,0,.3.73,1.27,1.27,0,0,0,.78.23,1.84,1.84,0,0,0,1.24-.42,1.53,1.53,0,0,0,.5-1.26Z"/><path class="cls-3" d="M78.14,149.47a2.42,2.42,0,0,1,1.73.57,2.38,2.38,0,0,1,.6,1.81v4.21H79.21v-4c0-1-.44-1.51-1.33-1.51a1.48,1.48,0,0,0-1.36.58,3.1,3.1,0,0,0-.38,1.7v3.26H74.87v-6.47h1l.18.87h.08a1.82,1.82,0,0,1,.85-.75A2.87,2.87,0,0,1,78.14,149.47Z"/><path class="cls-3" d="M84.65,156.18a2.34,2.34,0,0,1-1.89-.84,4.74,4.74,0,0,1,0-5,2.38,2.38,0,0,1,1.89-.85,2.27,2.27,0,0,1,1.2.28,2.6,2.6,0,0,1,.76.67h.07c0-.11,0-.28-.06-.49s0-.41,0-.57v-2.42h1.27v9.12h-1l-.22-.86H86.6a2.34,2.34,0,0,1-.74.69A2.31,2.31,0,0,1,84.65,156.18Zm.3-1a1.53,1.53,0,0,0,1.31-.52,2.74,2.74,0,0,0,.39-1.57v-.19a3.31,3.31,0,0,0-.37-1.74,1.44,1.44,0,0,0-1.35-.6,1.28,1.28,0,0,0-1.17.62,3.16,3.16,0,0,0-.4,1.73,2.94,2.94,0,0,0,.4,1.68A1.34,1.34,0,0,0,85,155.14Z"/><path class="cls-3" d="M95.53,147.49a3.66,3.66,0,0,1,2.45.68,2.39,2.39,0,0,1,.77,1.89,2.91,2.91,0,0,1-.32,1.34,2.38,2.38,0,0,1-1.06,1,4.4,4.4,0,0,1-2,.39h-.92v3.25h-1.3v-8.57Zm-.1,1.09h-1v3.14h.78a3.08,3.08,0,0,0,1.65-.37,1.65,1.65,0,0,0,.07-2.39A2.39,2.39,0,0,0,95.43,148.58Z"/><path class="cls-3" d="M103.52,149.47a3.84,3.84,0,0,1,.71.06l-.13,1.19a2.32,2.32,0,0,0-.65-.08,1.81,1.81,0,0,0-1.59.93,2.16,2.16,0,0,0-.26,1.08v3.41h-1.27v-6.47h1l.17,1.15h0a2.94,2.94,0,0,1,.8-.89A1.9,1.9,0,0,1,103.52,149.47Z"/><path class="cls-3" d="M111.13,152.82a3.47,3.47,0,0,1-.83,2.48,2.89,2.89,0,0,1-2.23.88,3.05,3.05,0,0,1-1.55-.39,2.69,2.69,0,0,1-1.07-1.14,3.93,3.93,0,0,1-.39-1.83,3.51,3.51,0,0,1,.81-2.48,2.93,2.93,0,0,1,2.24-.87,3.06,3.06,0,0,1,1.56.39,2.75,2.75,0,0,1,1.07,1.14A3.86,3.86,0,0,1,111.13,152.82Zm-4.76,0a3,3,0,0,0,.41,1.7,1.47,1.47,0,0,0,1.31.62,1.49,1.49,0,0,0,1.32-.62,3.73,3.73,0,0,0,0-3.4,1.52,1.52,0,0,0-1.33-.59,1.5,1.5,0,0,0-1.31.59A3,3,0,0,0,106.37,152.82Z"/><path class="cls-3" d="M117,154.24a1.67,1.67,0,0,1-.69,1.45,3.24,3.24,0,0,1-1.93.49,5.6,5.6,0,0,1-1.17-.1,3.29,3.29,0,0,1-.9-.3v-1.11a5.92,5.92,0,0,0,1,.36,4,4,0,0,0,1.11.17,1.84,1.84,0,0,0,1-.23.72.72,0,0,0,.32-.61.65.65,0,0,0-.12-.39,1.26,1.26,0,0,0-.45-.36,6.38,6.38,0,0,0-1-.43,7.46,7.46,0,0,1-1.05-.49,2,2,0,0,1-.65-.6,1.6,1.6,0,0,1-.23-.88,1.46,1.46,0,0,1,.68-1.29,3.19,3.19,0,0,1,1.79-.45,5,5,0,0,1,1.11.12,5.31,5.31,0,0,1,1,.34l-.42,1a8.14,8.14,0,0,0-.87-.31,3.37,3.37,0,0,0-.9-.12c-.78,0-1.17.23-1.17.68a.62.62,0,0,0,.13.4,1.65,1.65,0,0,0,.48.33c.23.12.55.25,1,.41a6.37,6.37,0,0,1,1,.48,1.82,1.82,0,0,1,.66.59A1.57,1.57,0,0,1,117,154.24Z"/><path class="cls-3" d="M121.78,149.47a2.33,2.33,0,0,1,1.88.84,3.83,3.83,0,0,1,.71,2.51,3.78,3.78,0,0,1-.72,2.5,2.36,2.36,0,0,1-1.89.86,2.42,2.42,0,0,1-1.2-.27,2.33,2.33,0,0,1-.74-.64h-.08c0,.14,0,.31.05.51a5.11,5.11,0,0,1,0,.52v2.64h-1.27v-9.35h1l.18.87h.06a2.26,2.26,0,0,1,.74-.7A2.29,2.29,0,0,1,121.78,149.47Zm-.31,1.05a1.48,1.48,0,0,0-1.27.51,2.8,2.8,0,0,0-.38,1.59v.19a3.4,3.4,0,0,0,.36,1.73,1.41,1.41,0,0,0,1.32.6,1.29,1.29,0,0,0,1.18-.65,3.36,3.36,0,0,0,.38-1.69,3.08,3.08,0,0,0-.39-1.67A1.32,1.32,0,0,0,121.47,150.52Z"/><path class="cls-3" d="M128.53,149.47a2.56,2.56,0,0,1,2,.79,3,3,0,0,1,.74,2.14v.7h-4.35a2.2,2.2,0,0,0,.53,1.52,1.82,1.82,0,0,0,1.39.53A4.6,4.6,0,0,0,130,155a5.14,5.14,0,0,0,1-.34v1.06a4.53,4.53,0,0,1-1,.33,5.73,5.73,0,0,1-1.17.1,3.53,3.53,0,0,1-1.66-.37A2.61,2.61,0,0,1,126,154.7a3.69,3.69,0,0,1-.4-1.82A4.3,4.3,0,0,1,126,151a2.69,2.69,0,0,1,1-1.16A3,3,0,0,1,128.53,149.47Zm0,1a1.42,1.42,0,0,0-1.1.44,2.06,2.06,0,0,0-.48,1.26h3a2,2,0,0,0-.36-1.23A1.27,1.27,0,0,0,128.53,150.46Z"/><path class="cls-3" d="M135.45,156.18a3,3,0,0,1-2.16-.8,3.4,3.4,0,0,1-.81-2.51,4.23,4.23,0,0,1,.39-2,2.52,2.52,0,0,1,1.1-1.09,3.38,3.38,0,0,1,1.58-.36,4.6,4.6,0,0,1,1,.11,3.65,3.65,0,0,1,.79.26l-.38,1c-.23-.08-.46-.16-.71-.23a3.12,3.12,0,0,0-.72-.1c-1.17,0-1.75.77-1.75,2.31a2.78,2.78,0,0,0,.43,1.68,1.5,1.5,0,0,0,1.27.57,3.48,3.48,0,0,0,.95-.12,3.76,3.76,0,0,0,.77-.31v1.1a2.62,2.62,0,0,1-.76.3A4.06,4.06,0,0,1,135.45,156.18Z"/><path class="cls-3" d="M141.06,155.15a2.7,2.7,0,0,0,1-.16v1a2,2,0,0,1-.55.16,3.33,3.33,0,0,1-.7.07,2.49,2.49,0,0,1-1-.18,1.47,1.47,0,0,1-.71-.62,2.51,2.51,0,0,1-.26-1.24v-3.58H138V150l1-.48.44-1.37h.78v1.45H142v1h-1.85v3.56a1.06,1.06,0,0,0,.26.78A1,1,0,0,0,141.06,155.15Z"/><path class="cls-3" d="M144,147.13a.82.82,0,0,1,.51.17.85.85,0,0,1,0,1.12.78.78,0,0,1-.51.18.76.76,0,0,1-.51-.18.82.82,0,0,1,0-1.12A.8.8,0,0,1,144,147.13Zm.63,2.46v6.47h-1.27v-6.47Z"/><path class="cls-3" d="M148,156.06l-2.45-6.47h1.35l1.34,3.78c.08.26.17.54.25.84a6.08,6.08,0,0,1,.18.76h0a6,6,0,0,1,.19-.76l.27-.84,1.34-3.78h1.35l-2.46,6.47Z"/><path class="cls-3" d="M155.45,149.47a2.59,2.59,0,0,1,2,.79,3,3,0,0,1,.73,2.14v.7h-4.34a2.19,2.19,0,0,0,.52,1.52,1.84,1.84,0,0,0,1.4.53,4.72,4.72,0,0,0,1.11-.12,5.37,5.37,0,0,0,1-.34v1.06a4.92,4.92,0,0,1-1,.33,5.77,5.77,0,0,1-1.18.1,3.56,3.56,0,0,1-1.66-.37,2.66,2.66,0,0,1-1.12-1.11,3.69,3.69,0,0,1-.4-1.82,4.15,4.15,0,0,1,.37-1.85,2.69,2.69,0,0,1,1-1.16A2.9,2.9,0,0,1,155.45,149.47Zm0,1a1.4,1.4,0,0,0-1.1.44,2.07,2.07,0,0,0-.49,1.26h3a2.06,2.06,0,0,0-.37-1.23A1.25,1.25,0,0,0,155.45,150.46Z"/><path class="cls-3" d="M73.33,161.89a4,4,0,0,1,2.43.61,2.2,2.2,0,0,1,.79,1.86,2.34,2.34,0,0,1-.24,1.11,2.16,2.16,0,0,1-.63.74,3.61,3.61,0,0,1-.81.45l2.4,3.8H75.78L73.72,167H72.23v3.47h-1.3v-8.57ZM73.25,163h-1v2.91h1.08a2.21,2.21,0,0,0,1.45-.38,1.38,1.38,0,0,0,.46-1.12,1.22,1.22,0,0,0-.48-1.09A2.68,2.68,0,0,0,73.25,163Z"/><path class="cls-3" d="M80.93,163.87a2.58,2.58,0,0,1,2,.79,3,3,0,0,1,.73,2.14v.7H79.32a2.24,2.24,0,0,0,.52,1.52,1.84,1.84,0,0,0,1.4.53,4.6,4.6,0,0,0,1.11-.12,5.37,5.37,0,0,0,1-.34v1.06a4.71,4.71,0,0,1-1,.33,5.77,5.77,0,0,1-1.18.1,3.52,3.52,0,0,1-1.65-.37,2.69,2.69,0,0,1-1.13-1.11,3.8,3.8,0,0,1-.4-1.82,4.15,4.15,0,0,1,.37-1.85,2.69,2.69,0,0,1,1-1.16A2.9,2.9,0,0,1,80.93,163.87Zm0,1a1.42,1.42,0,0,0-1.1.44,2.07,2.07,0,0,0-.49,1.26h3a2.13,2.13,0,0,0-.36-1.23A1.28,1.28,0,0,0,80.93,164.86Z"/><path class="cls-3" d="M89.54,168.64a1.67,1.67,0,0,1-.69,1.45,3.26,3.26,0,0,1-1.93.49,5.6,5.6,0,0,1-1.17-.1,3.18,3.18,0,0,1-.9-.3v-1.11a5.92,5.92,0,0,0,1,.36,4,4,0,0,0,1.11.17,1.84,1.84,0,0,0,1-.23.72.72,0,0,0,.32-.61.65.65,0,0,0-.12-.39,1.26,1.26,0,0,0-.45-.36,6.38,6.38,0,0,0-1-.43,7.46,7.46,0,0,1-1-.49,2,2,0,0,1-.65-.6,1.6,1.6,0,0,1-.23-.88,1.46,1.46,0,0,1,.68-1.29,3.19,3.19,0,0,1,1.79-.45,5,5,0,0,1,1.11.12,5.31,5.31,0,0,1,1,.34l-.42,1a8.14,8.14,0,0,0-.87-.31,3.37,3.37,0,0,0-.9-.12c-.78,0-1.17.23-1.17.68a.62.62,0,0,0,.13.4,1.65,1.65,0,0,0,.48.33c.23.12.55.25,1,.41a6.37,6.37,0,0,1,1,.48,1.9,1.9,0,0,1,.66.59A1.57,1.57,0,0,1,89.54,168.64Z"/><path class="cls-3" d="M93.6,163.87a2.56,2.56,0,0,1,2,.79,3,3,0,0,1,.74,2.14v.7H92a2.24,2.24,0,0,0,.52,1.52,1.85,1.85,0,0,0,1.4.53,4.6,4.6,0,0,0,1.11-.12,5.14,5.14,0,0,0,1-.34v1.06a4.53,4.53,0,0,1-1,.33,5.77,5.77,0,0,1-1.18.1,3.52,3.52,0,0,1-1.65-.37,2.61,2.61,0,0,1-1.12-1.11,3.68,3.68,0,0,1-.41-1.82,4.29,4.29,0,0,1,.37-1.85,2.69,2.69,0,0,1,1-1.16A3,3,0,0,1,93.6,163.87Zm0,1a1.42,1.42,0,0,0-1.1.44,2.06,2.06,0,0,0-.48,1.26h3a2.06,2.06,0,0,0-.36-1.23A1.27,1.27,0,0,0,93.6,164.86Z"/><path class="cls-3" d="M100.43,163.87a2.67,2.67,0,0,1,1.82.54,2.11,2.11,0,0,1,.6,1.67v4.38H102l-.25-.9h0a2.82,2.82,0,0,1-.88.77,2.67,2.67,0,0,1-1.28.25,2.23,2.23,0,0,1-1.45-.47,1.84,1.84,0,0,1-.58-1.49,1.7,1.7,0,0,1,.75-1.5,4.36,4.36,0,0,1,2.29-.56l1.1,0v-.36a1.29,1.29,0,0,0-.32-1,1.34,1.34,0,0,0-.91-.29,3.31,3.31,0,0,0-1,.14,6.72,6.72,0,0,0-.88.35l-.4-.92a5.11,5.11,0,0,1,1-.41A5,5,0,0,1,100.43,163.87Zm1.16,3.48-.86,0a2.78,2.78,0,0,0-1.53.37,1,1,0,0,0-.43.89.86.86,0,0,0,.3.73,1.27,1.27,0,0,0,.78.23,1.84,1.84,0,0,0,1.24-.42,1.53,1.53,0,0,0,.5-1.26Z"/><path class="cls-3" d="M108,163.87a3.92,3.92,0,0,1,.71.06l-.13,1.19a2.36,2.36,0,0,0-.65-.08,1.81,1.81,0,0,0-1.59.93,2.16,2.16,0,0,0-.26,1.08v3.41h-1.27V164h1l.16,1.15h0a3,3,0,0,1,.81-.89A1.88,1.88,0,0,1,108,163.87Z"/><path class="cls-3" d="M112.51,170.58a3,3,0,0,1-2.16-.8,3.4,3.4,0,0,1-.81-2.51,4.23,4.23,0,0,1,.39-2,2.55,2.55,0,0,1,1.09-1.09,3.45,3.45,0,0,1,1.59-.36,4.6,4.6,0,0,1,1,.11,3.65,3.65,0,0,1,.79.26l-.39,1-.7-.23a3.12,3.12,0,0,0-.72-.1c-1.17,0-1.76.77-1.76,2.31a2.78,2.78,0,0,0,.44,1.68,1.48,1.48,0,0,0,1.27.57,3.41,3.41,0,0,0,1.71-.43v1.1a2.46,2.46,0,0,1-.75.3A4.11,4.11,0,0,1,112.51,170.58Z"/><path class="cls-3" d="M117.06,161.34v2.44c0,.2,0,.4,0,.6s0,.36-.05.49h.08a1.94,1.94,0,0,1,.84-.74,2.64,2.64,0,0,1,1.13-.25,2.47,2.47,0,0,1,1.75.57,2.35,2.35,0,0,1,.6,1.8v4.21h-1.26v-4c0-1-.44-1.51-1.33-1.51a1.49,1.49,0,0,0-1.37.6,3.19,3.19,0,0,0-.37,1.69v3.25h-1.27v-9.12Z"/><path class="cls-3" d="M783.78,137.29a4.21,4.21,0,0,1-1.2,3.27,4.75,4.75,0,0,1-3.34,1.1h-2.4v-8.57h2.65a5,5,0,0,1,2.27.48,3.41,3.41,0,0,1,1.49,1.42A4.63,4.63,0,0,1,783.78,137.29Zm-1.36,0a3.19,3.19,0,0,0-.78-2.38,3,3,0,0,0-2.23-.77h-1.27v6.39h1Q782.42,140.57,782.42,137.33Z"/><path class="cls-3" d="M788,135.07a2.66,2.66,0,0,1,1.82.54,2.12,2.12,0,0,1,.61,1.67v4.38h-.91l-.25-.9h0a2.82,2.82,0,0,1-.88.77,2.64,2.64,0,0,1-1.28.25,2.25,2.25,0,0,1-1.45-.47,1.83,1.83,0,0,1-.57-1.49,1.7,1.7,0,0,1,.75-1.5,4.32,4.32,0,0,1,2.28-.56l1.11,0v-.36a1.29,1.29,0,0,0-.33-1,1.32,1.32,0,0,0-.91-.29,3.36,3.36,0,0,0-1,.14,6.58,6.58,0,0,0-.87.35l-.41-.92a4.89,4.89,0,0,1,2.29-.57Zm1.17,3.48-.87,0a2.78,2.78,0,0,0-1.53.37,1.06,1.06,0,0,0-.43.89.86.86,0,0,0,.3.73,1.28,1.28,0,0,0,.79.23,1.86,1.86,0,0,0,1.24-.42,1.56,1.56,0,0,0,.5-1.26Z"/><path class="cls-3" d="M794.71,140.75a2.7,2.7,0,0,0,1-.16v1a2,2,0,0,1-.55.16,3.33,3.33,0,0,1-.7.07,2.49,2.49,0,0,1-1-.18,1.51,1.51,0,0,1-.71-.62,2.51,2.51,0,0,1-.26-1.24v-3.58h-.9v-.57l.95-.48.44-1.37h.78v1.45h1.85v1h-1.85v3.56a1.06,1.06,0,0,0,.26.78A1,1,0,0,0,794.71,140.75Z"/><path class="cls-3" d="M799.48,135.07a2.66,2.66,0,0,1,1.82.54,2.08,2.08,0,0,1,.61,1.67v4.38H801l-.25-.9h0a2.93,2.93,0,0,1-.88.77,2.7,2.7,0,0,1-1.28.25,2.22,2.22,0,0,1-1.45-.47,1.8,1.8,0,0,1-.58-1.49,1.7,1.7,0,0,1,.75-1.5,4.34,4.34,0,0,1,2.29-.56l1.1,0v-.36a1.33,1.33,0,0,0-.32-1,1.35,1.35,0,0,0-.92-.29,3.29,3.29,0,0,0-.94.14,6.2,6.2,0,0,0-.88.35l-.41-.92a5.6,5.6,0,0,1,1-.41A5.08,5.08,0,0,1,799.48,135.07Zm1.17,3.48-.87,0a2.83,2.83,0,0,0-1.53.37,1.05,1.05,0,0,0-.42.89.86.86,0,0,0,.3.73,1.27,1.27,0,0,0,.78.23,1.86,1.86,0,0,0,1.24-.42,1.56,1.56,0,0,0,.5-1.26Z"/><path class="cls-3" d="M805.14,132.54v2.2c0,.25,0,.5,0,.75s0,.43,0,.55h.06a2.21,2.21,0,0,1,.74-.68,2.41,2.41,0,0,1,1.21-.28,2.35,2.35,0,0,1,1.88.84,4.75,4.75,0,0,1,0,5,2.33,2.33,0,0,1-1.88.85,2.23,2.23,0,0,1-1.94-.91H805l-.24.79h-.94v-9.12Zm1.65,3.58a1.43,1.43,0,0,0-1.28.54,3.1,3.1,0,0,0-.37,1.68v.09a3.31,3.31,0,0,0,.35,1.71,1.42,1.42,0,0,0,1.33.6,1.3,1.3,0,0,0,1.17-.6,3.19,3.19,0,0,0,.39-1.73C808.38,136.88,807.85,136.12,806.79,136.12Z"/><path class="cls-3" d="M813.81,135.07a2.66,2.66,0,0,1,1.82.54,2.12,2.12,0,0,1,.61,1.67v4.38h-.9l-.26-.9h0a2.85,2.85,0,0,1-.89.77,2.62,2.62,0,0,1-1.27.25,2.26,2.26,0,0,1-1.46-.47,1.83,1.83,0,0,1-.57-1.49,1.7,1.7,0,0,1,.75-1.5,4.32,4.32,0,0,1,2.28-.56l1.11,0v-.36a1.29,1.29,0,0,0-.33-1,1.32,1.32,0,0,0-.91-.29,3.36,3.36,0,0,0-1,.14,6.58,6.58,0,0,0-.87.35l-.41-.92a4.89,4.89,0,0,1,2.29-.57Zm1.17,3.48-.87,0a2.83,2.83,0,0,0-1.53.37,1.05,1.05,0,0,0-.42.89.86.86,0,0,0,.3.73,1.27,1.27,0,0,0,.78.23,1.86,1.86,0,0,0,1.24-.42,1.56,1.56,0,0,0,.5-1.26Z"/><path class="cls-3" d="M822.49,139.84a1.67,1.67,0,0,1-.69,1.45,3.29,3.29,0,0,1-1.94.49,5.6,5.6,0,0,1-1.17-.1,3.22,3.22,0,0,1-.89-.3v-1.11a5.92,5.92,0,0,0,1,.36,4,4,0,0,0,1.11.17,1.8,1.8,0,0,0,1-.23.7.7,0,0,0,.32-.61.65.65,0,0,0-.12-.39,1.26,1.26,0,0,0-.45-.36,6.66,6.66,0,0,0-1-.43,6.53,6.53,0,0,1-1.05-.49,1.93,1.93,0,0,1-.66-.6,1.6,1.6,0,0,1-.23-.88,1.46,1.46,0,0,1,.68-1.29,3.2,3.2,0,0,1,1.8-.45,5,5,0,0,1,1.11.12,5.46,5.46,0,0,1,1,.34l-.42,1a8.82,8.82,0,0,0-.86-.31,3.48,3.48,0,0,0-.9-.12c-.79,0-1.18.23-1.18.68a.63.63,0,0,0,.14.4,1.41,1.41,0,0,0,.48.33,10.14,10.14,0,0,0,1,.41,7,7,0,0,1,1,.48,1.87,1.87,0,0,1,.65.59A1.57,1.57,0,0,1,822.49,139.84Z"/><path class="cls-3" d="M826.54,135.07a2.6,2.6,0,0,1,2,.79,3,3,0,0,1,.73,2.14v.7h-4.34a2.19,2.19,0,0,0,.52,1.52,1.84,1.84,0,0,0,1.4.53,4.72,4.72,0,0,0,1.11-.12,5.63,5.63,0,0,0,1-.34v1.06a4.8,4.8,0,0,1-1,.33,5.67,5.67,0,0,1-1.17.1,3.53,3.53,0,0,1-1.66-.37A2.66,2.66,0,0,1,824,140.3a3.69,3.69,0,0,1-.4-1.82,4.3,4.3,0,0,1,.36-1.85,2.82,2.82,0,0,1,1-1.16A3,3,0,0,1,826.54,135.07Zm0,1a1.4,1.4,0,0,0-1.09.44,2.07,2.07,0,0,0-.49,1.26h3a2.06,2.06,0,0,0-.37-1.23A1.26,1.26,0,0,0,826.54,136.06Z"/><path class="cls-3" d="M787.78,153.74a2.15,2.15,0,0,1-.83,1.79,3.6,3.6,0,0,1-2.27.65,7.83,7.83,0,0,1-1.32-.11,4.39,4.39,0,0,1-1-.33v-1.23a6.18,6.18,0,0,0,1.13.39,4.89,4.89,0,0,0,1.32.18,2.09,2.09,0,0,0,1.29-.34,1.07,1.07,0,0,0,.44-.9,1.13,1.13,0,0,0-.2-.67,1.73,1.73,0,0,0-.62-.5,9.25,9.25,0,0,0-1.1-.5,6.16,6.16,0,0,1-1.12-.56,2.48,2.48,0,0,1-.77-.81,2.35,2.35,0,0,1-.27-1.17,2,2,0,0,1,.76-1.66,3.21,3.21,0,0,1,2-.6,5.31,5.31,0,0,1,1.29.15,6.8,6.8,0,0,1,1.13.37l-.4,1.07a7.49,7.49,0,0,0-1-.34,4.08,4.08,0,0,0-1.05-.13,1.64,1.64,0,0,0-1.08.31,1,1,0,0,0-.37.82,1.16,1.16,0,0,0,.18.66,1.52,1.52,0,0,0,.58.49,8.16,8.16,0,0,0,1,.48,7.85,7.85,0,0,1,1.23.6,2.26,2.26,0,0,1,.77.77A2.16,2.16,0,0,1,787.78,153.74Z"/><path class="cls-3" d="M791.64,155.15a2.76,2.76,0,0,0,1-.16v1a2,2,0,0,1-.56.16,3.23,3.23,0,0,1-.69.07,2.5,2.5,0,0,1-1-.18,1.49,1.49,0,0,1-.7-.62,2.41,2.41,0,0,1-.26-1.24v-3.58h-.9V150l.94-.48.45-1.37h.78v1.45h1.84v1h-1.84v3.56a1,1,0,0,0,.26.78A.94.94,0,0,0,791.64,155.15Z"/><path class="cls-3" d="M799.48,149.59v6.47h-1l-.18-.85h-.06a1.91,1.91,0,0,1-.87.74,3,3,0,0,1-1.16.23,2.47,2.47,0,0,1-1.74-.56,2.34,2.34,0,0,1-.6-1.79v-4.24h1.29v4a1.68,1.68,0,0,0,.31,1.12,1.25,1.25,0,0,0,1,.38,1.51,1.51,0,0,0,1.38-.59,3,3,0,0,0,.39-1.68v-3.28Z"/><path class="cls-3" d="M803.69,156.18a2.33,2.33,0,0,1-1.88-.84,4.76,4.76,0,0,1,0-5,2.38,2.38,0,0,1,1.9-.85,2.32,2.32,0,0,1,1.2.28,2.44,2.44,0,0,1,.75.67h.07c0-.11,0-.28-.06-.49s0-.41,0-.57v-2.42h1.27v9.12h-1l-.21-.86h-.06a2.38,2.38,0,0,1-.75.69A2.28,2.28,0,0,1,803.69,156.18Zm.3-1a1.52,1.52,0,0,0,1.31-.52,2.66,2.66,0,0,0,.4-1.57v-.19a3.41,3.41,0,0,0-.37-1.74,1.44,1.44,0,0,0-1.35-.6,1.3,1.3,0,0,0-1.18.62,3.26,3.26,0,0,0-.39,1.73,3,3,0,0,0,.39,1.68A1.35,1.35,0,0,0,804,155.14Z"/><path class="cls-3" d="M809.56,147.13a.8.8,0,0,1,.5.17.82.82,0,0,1,0,1.12.75.75,0,0,1-.5.18.8.8,0,0,1-.52-.18.85.85,0,0,1,0-1.12A.85.85,0,0,1,809.56,147.13Zm.62,2.46v6.47h-1.27v-6.47Z"/><path class="cls-3" d="M814.72,149.47a2.58,2.58,0,0,1,2,.79,3,3,0,0,1,.73,2.14v.7h-4.34a2.24,2.24,0,0,0,.52,1.52,1.84,1.84,0,0,0,1.4.53,4.6,4.6,0,0,0,1.11-.12,5.14,5.14,0,0,0,1-.34v1.06a4.71,4.71,0,0,1-1,.33,5.77,5.77,0,0,1-1.18.1,3.52,3.52,0,0,1-1.65-.37,2.69,2.69,0,0,1-1.13-1.11,3.8,3.8,0,0,1-.4-1.82,4.29,4.29,0,0,1,.37-1.85,2.69,2.69,0,0,1,1-1.16A2.93,2.93,0,0,1,814.72,149.47Zm0,1a1.42,1.42,0,0,0-1.1.44,2,2,0,0,0-.48,1.26h3a2.06,2.06,0,0,0-.36-1.23A1.27,1.27,0,0,0,814.72,150.46Z"/><path class="cls-3" d="M823.33,154.24a1.67,1.67,0,0,1-.69,1.45,3.26,3.26,0,0,1-1.93.49,5.6,5.6,0,0,1-1.17-.1,3.18,3.18,0,0,1-.9-.3v-1.11a5.92,5.92,0,0,0,1,.36,4,4,0,0,0,1.11.17,1.84,1.84,0,0,0,1-.23.72.72,0,0,0,.32-.61A.65.65,0,0,0,822,154a1.26,1.26,0,0,0-.45-.36,6.38,6.38,0,0,0-1-.43,7.46,7.46,0,0,1-1-.49,2,2,0,0,1-.65-.6,1.6,1.6,0,0,1-.23-.88,1.46,1.46,0,0,1,.68-1.29,3.19,3.19,0,0,1,1.79-.45,5,5,0,0,1,1.11.12,5.31,5.31,0,0,1,1,.34l-.42,1a8.14,8.14,0,0,0-.87-.31,3.37,3.37,0,0,0-.9-.12c-.78,0-1.17.23-1.17.68a.62.62,0,0,0,.13.4,1.65,1.65,0,0,0,.48.33c.23.12.55.25,1,.41a6.37,6.37,0,0,1,1,.48,1.9,1.9,0,0,1,.66.59A1.57,1.57,0,0,1,823.33,154.24Z"/><path class="cls-1" d="M42.52,32.88A5.2,5.2,0,0,1,46.15,34a3.86,3.86,0,0,1,1.14,2.95,4.68,4.68,0,0,1-.47,2.1,3.55,3.55,0,0,1-1.55,1.57,6.32,6.32,0,0,1-3,.59H41.14v4.57H38.42V32.88Zm-.14,2.23H41.14v3.82H42a3.17,3.17,0,0,0,1.82-.46A1.67,1.67,0,0,0,44.54,37C44.54,35.74,43.82,35.11,42.38,35.11Z"/><path class="cls-1" d="M58.52,35.91v9.82H56.47l-.36-1.26H56a2.67,2.67,0,0,1-1.29,1.1,4.43,4.43,0,0,1-1.74.34,3.64,3.64,0,0,1-2.53-.85,3.52,3.52,0,0,1-1-2.75v-6.4h2.68v5.74a2.74,2.74,0,0,0,.38,1.59,1.4,1.4,0,0,0,1.21.53,1.72,1.72,0,0,0,1.67-.84,5.12,5.12,0,0,0,.45-2.4V35.91Z"/><path class="cls-1" d="M66.82,35.73h.47a3.17,3.17,0,0,1,.43.06l-.2,2.52a2.23,2.23,0,0,0-.37-.07l-.42,0a3.66,3.66,0,0,0-1.31.24,2.19,2.19,0,0,0-1,.78A2.5,2.5,0,0,0,64,40.73v5H61.33V35.91h2l.39,1.65h.13a4,4,0,0,1,1.19-1.29A2.9,2.9,0,0,1,66.82,35.73Z"/><path class="cls-1" d="M73.55,35.73A4.06,4.06,0,0,1,78,40.19v1.3H71.63a2.56,2.56,0,0,0,.67,1.78,2.4,2.4,0,0,0,1.78.65,7.59,7.59,0,0,0,1.71-.19,8.18,8.18,0,0,0,1.62-.59v2.07a6.78,6.78,0,0,1-1.53.53,8.92,8.92,0,0,1-1.93.17,5.89,5.89,0,0,1-2.61-.55,4,4,0,0,1-1.78-1.65,5.55,5.55,0,0,1-.65-2.82A6.28,6.28,0,0,1,69.49,38a4,4,0,0,1,1.63-1.73A5,5,0,0,1,73.55,35.73Zm0,1.9a1.72,1.72,0,0,0-1.29.51,2.41,2.41,0,0,0-.6,1.56h3.76A2.43,2.43,0,0,0,75,38.23,1.65,1.65,0,0,0,73.57,37.63Z"/><path class="cls-1" d="M89.14,32.88A5.2,5.2,0,0,1,92.77,34a3.86,3.86,0,0,1,1.14,2.95,4.68,4.68,0,0,1-.47,2.1,3.55,3.55,0,0,1-1.55,1.57,6.32,6.32,0,0,1-3,.59H87.76v4.57H85V32.88ZM89,35.11H87.76v3.82h.9a3.17,3.17,0,0,0,1.82-.46A1.67,1.67,0,0,0,91.16,37C91.16,35.74,90.44,35.11,89,35.11Z"/><path class="cls-1" d="M101.62,35.73h.46a3,3,0,0,1,.43.06l-.19,2.52a2.62,2.62,0,0,0-.38-.07l-.41,0a3.68,3.68,0,0,0-1.32.24,2.19,2.19,0,0,0-1,.78,2.57,2.57,0,0,0-.38,1.48v5H96.12V35.91h2l.39,1.65h.13a4.16,4.16,0,0,1,1.19-1.29A2.91,2.91,0,0,1,101.62,35.73Z"/><path class="cls-1" d="M105.65,32.05a1.87,1.87,0,0,1,1,.28,1.14,1.14,0,0,1,.43,1,1.12,1.12,0,0,1-.43,1,1.72,1.72,0,0,1-1,.29,1.75,1.75,0,0,1-1-.29,1.14,1.14,0,0,1-.42-1,1.16,1.16,0,0,1,.42-1A1.9,1.9,0,0,1,105.65,32.05ZM107,35.91v9.82H104.3V35.91Z"/><path class="cls-1" d="M121.32,35.73a3.42,3.42,0,0,1,2.53.85,3.78,3.78,0,0,1,.86,2.75v6.4H122V40c0-1.41-.5-2.12-1.48-2.12a1.62,1.62,0,0,0-1.51.75,4.32,4.32,0,0,0-.45,2.18v4.93h-2.68V40c0-1.41-.5-2.12-1.48-2.12a1.58,1.58,0,0,0-1.54.83,5.51,5.51,0,0,0-.42,2.41v4.62h-2.68V35.91h2l.36,1.26h.14a2.6,2.6,0,0,1,1.24-1.1,4,4,0,0,1,1.62-.34,4.21,4.21,0,0,1,1.83.35,2.45,2.45,0,0,1,1.16,1.09h.24a2.58,2.58,0,0,1,1.25-1.1A4.09,4.09,0,0,1,121.32,35.73Z"/><path class="cls-1" d="M131.49,35.71a4.73,4.73,0,0,1,3,.85,3.19,3.19,0,0,1,1.05,2.62v6.55h-1.87l-.52-1.33h-.08a4.12,4.12,0,0,1-1.33,1.15,4.27,4.27,0,0,1-1.92.36,3.19,3.19,0,0,1-2.18-.75,3,3,0,0,1-.87-2.36,2.58,2.58,0,0,1,1.1-2.3,6.36,6.36,0,0,1,3.3-.83l1.71-.06v-.43a1.44,1.44,0,0,0-.41-1.13,1.62,1.62,0,0,0-1.12-.36,5.16,5.16,0,0,0-1.41.2,11.57,11.57,0,0,0-1.37.52l-.88-1.82a8.41,8.41,0,0,1,3.76-.88Zm1.43,5.47-1,0a3,3,0,0,0-1.8.46,1.45,1.45,0,0,0-.5,1.14,1,1,0,0,0,.36.87,1.57,1.57,0,0,0,.93.26,2.15,2.15,0,0,0,1.46-.51,1.81,1.81,0,0,0,.6-1.45Z"/><path class="cls-1" d="M143.82,35.73h.47a3,3,0,0,1,.43.06l-.19,2.52a2.62,2.62,0,0,0-.38-.07l-.42,0a3.66,3.66,0,0,0-1.31.24,2.19,2.19,0,0,0-1,.78,2.57,2.57,0,0,0-.38,1.48v5h-2.69V35.91h2l.39,1.65h.13a4,4,0,0,1,1.19-1.29A2.9,2.9,0,0,1,143.82,35.73Z"/><path class="cls-1" d="M145.1,35.91H148l1.85,5.52a5.09,5.09,0,0,1,.22.83c0,.28.08.57.1.88h.06a7.71,7.71,0,0,1,.14-.88,6.48,6.48,0,0,1,.24-.83l1.81-5.52h2.88L151.19,47a4.87,4.87,0,0,1-1.64,2.3,4.11,4.11,0,0,1-2.47.76,6,6,0,0,1-.79,0c-.22,0-.41-.06-.58-.1V47.79l.47.07a5.74,5.74,0,0,0,.6,0,1.76,1.76,0,0,0,1.33-.51,3.46,3.46,0,0,0,.74-1.23l.16-.49Z"/><path class="cls-1" d="M738.47,32.57a5.2,5.2,0,0,1,3.63,1.07,3.83,3.83,0,0,1,1.14,2.94,4.69,4.69,0,0,1-.47,2.11,3.48,3.48,0,0,1-1.55,1.56,6.19,6.19,0,0,1-3,.6h-1.17v4.57h-2.72V32.57Zm-.14,2.23h-1.24v3.82h.9a3.25,3.25,0,0,0,1.82-.46,1.68,1.68,0,0,0,.68-1.49C740.49,35.42,739.77,34.8,738.33,34.8Z"/><path class="cls-1" d="M754.47,35.59v9.83h-2.05l-.36-1.26h-.14a2.72,2.72,0,0,1-1.29,1.1,4.43,4.43,0,0,1-1.74.34,3.64,3.64,0,0,1-2.53-.85,3.52,3.52,0,0,1-1-2.75V35.59h2.68v5.74a2.8,2.8,0,0,0,.38,1.6,1.4,1.4,0,0,0,1.21.53,1.72,1.72,0,0,0,1.67-.84,5.17,5.17,0,0,0,.45-2.4V35.59Z"/><path class="cls-1" d="M762.77,35.41l.47,0a3.42,3.42,0,0,1,.43,0l-.2,2.52-.37-.06-.42,0a3.67,3.67,0,0,0-1.31.25,2.19,2.19,0,0,0-1,.78,2.48,2.48,0,0,0-.39,1.48v5h-2.68V35.59h2l.39,1.66h.13A4,4,0,0,1,761,36,2.9,2.9,0,0,1,762.77,35.41Z"/><path class="cls-1" d="M769.5,35.41a4.06,4.06,0,0,1,4.41,4.47v1.29h-6.33a2.54,2.54,0,0,0,.67,1.78,2.36,2.36,0,0,0,1.78.65,7.05,7.05,0,0,0,1.71-.19,8.12,8.12,0,0,0,1.62-.58V44.9a6.78,6.78,0,0,1-1.53.53,9.6,9.6,0,0,1-1.93.17,5.89,5.89,0,0,1-2.61-.55,4.05,4.05,0,0,1-1.78-1.65,5.55,5.55,0,0,1-.65-2.82,6.25,6.25,0,0,1,.58-2.86A4,4,0,0,1,767.07,36,4.91,4.91,0,0,1,769.5,35.41Zm0,1.91a1.75,1.75,0,0,0-1.29.5,2.44,2.44,0,0,0-.6,1.57h3.76a2.47,2.47,0,0,0-.47-1.48A1.67,1.67,0,0,0,769.52,37.32Z"/><path class="cls-1" d="M788.57,41.86a3.34,3.34,0,0,1-1.24,2.72,5.35,5.35,0,0,1-3.5,1,8.3,8.3,0,0,1-3.63-.77V42.29c.61.26,1.24.51,1.89.73a6.16,6.16,0,0,0,2,.33,2.09,2.09,0,0,0,1.43-.39,1.26,1.26,0,0,0,.42-1,1.16,1.16,0,0,0-.33-.83,3.57,3.57,0,0,0-.89-.63c-.37-.2-.8-.42-1.28-.64-.3-.15-.62-.32-1-.52a5.21,5.21,0,0,1-1-.73,3.56,3.56,0,0,1-.78-1.08,3.33,3.33,0,0,1-.31-1.51,3.29,3.29,0,0,1,1.17-2.69,4.88,4.88,0,0,1,3.19-1,7.79,7.79,0,0,1,1.9.23,13.72,13.72,0,0,1,1.91.67l-.88,2.12c-.59-.24-1.12-.42-1.58-.56a5.37,5.37,0,0,0-1.44-.19,1.75,1.75,0,0,0-1.19.36A1.17,1.17,0,0,0,783,36a1.22,1.22,0,0,0,.62,1.08,15,15,0,0,0,1.81,1,11.28,11.28,0,0,1,1.69,1,3.62,3.62,0,0,1,1.07,1.18A3.5,3.5,0,0,1,788.57,41.86Z"/><path class="cls-1" d="M794.74,35.41a4.07,4.07,0,0,1,4.41,4.47v1.29h-6.34a2.55,2.55,0,0,0,.68,1.78,2.34,2.34,0,0,0,1.77.65,7.08,7.08,0,0,0,1.72-.19,8,8,0,0,0,1.61-.58V44.9a6.45,6.45,0,0,1-1.53.53,9.56,9.56,0,0,1-1.92.17,5.83,5.83,0,0,1-2.61-.55,4.13,4.13,0,0,1-1.79-1.65,5.55,5.55,0,0,1-.65-2.82,6.25,6.25,0,0,1,.59-2.86A3.91,3.91,0,0,1,792.31,36,4.88,4.88,0,0,1,794.74,35.41Zm0,1.91a1.79,1.79,0,0,0-1.3.5,2.49,2.49,0,0,0-.59,1.57h3.76a2.41,2.41,0,0,0-.48-1.48A1.65,1.65,0,0,0,794.76,37.32Z"/><path class="cls-1" d="M805.32,45.6a4.55,4.55,0,0,1-3.39-1.21,5.25,5.25,0,0,1-1.2-3.83,6.22,6.22,0,0,1,.61-2.93A3.85,3.85,0,0,1,803.05,36a5.55,5.55,0,0,1,2.51-.54,7,7,0,0,1,1.75.2,7.09,7.09,0,0,1,1.31.47l-.79,2.07c-.42-.17-.82-.31-1.18-.42a4.17,4.17,0,0,0-1.09-.16c-1.39,0-2.09,1-2.09,3a3.5,3.5,0,0,0,.55,2.18,1.83,1.83,0,0,0,1.54.7,4.54,4.54,0,0,0,1.49-.22,6.13,6.13,0,0,0,1.26-.62v2.28a4.11,4.11,0,0,1-1.29.57A7.25,7.25,0,0,1,805.32,45.6Z"/><path class="cls-1" d="M819.51,40.49a5.22,5.22,0,0,1-1.29,3.78,4.64,4.64,0,0,1-3.5,1.33,5,5,0,0,1-2.44-.59,4.21,4.21,0,0,1-1.68-1.74,5.8,5.8,0,0,1-.62-2.78,5.17,5.17,0,0,1,1.28-3.76,4.65,4.65,0,0,1,3.51-1.32,4.89,4.89,0,0,1,2.45.6,4.14,4.14,0,0,1,1.67,1.72A5.74,5.74,0,0,1,819.51,40.49Zm-6.79,0a4.08,4.08,0,0,0,.48,2.2,1.7,1.7,0,0,0,1.56.75,1.67,1.67,0,0,0,1.53-.75,4.08,4.08,0,0,0,.48-2.2,4,4,0,0,0-.48-2.19,2,2,0,0,0-3.09,0A4,4,0,0,0,812.72,40.49Z"/><path class="cls-1" d="M827.3,35.41a3.67,3.67,0,0,1,2.54.86,3.53,3.53,0,0,1,.95,2.74v6.41h-2.68V39.68a2.74,2.74,0,0,0-.38-1.59,1.36,1.36,0,0,0-1.2-.54,1.73,1.73,0,0,0-1.68.84,5.17,5.17,0,0,0-.45,2.4v4.63h-2.68V35.59h2l.36,1.26h.15a2.74,2.74,0,0,1,1.28-1.1A4.65,4.65,0,0,1,827.3,35.41Z"/><path class="cls-1" d="M836.66,45.6A3.27,3.27,0,0,1,834,44.31a5.93,5.93,0,0,1-1-3.79,5.93,5.93,0,0,1,1-3.81,3.63,3.63,0,0,1,4.48-.88,3.41,3.41,0,0,1,1.08,1h.09c0-.19-.08-.47-.13-.83a8.47,8.47,0,0,1-.07-1.13V31.74h2.68V45.42h-2l-.52-1.28h-.11a3.4,3.4,0,0,1-1.06,1A3.21,3.21,0,0,1,836.66,45.6Zm.94-2.14a1.72,1.72,0,0,0,1.54-.66,3.64,3.64,0,0,0,.49-2v-.29a4.44,4.44,0,0,0-.44-2.18,1.72,1.72,0,0,0-1.63-.77,1.56,1.56,0,0,0-1.38.77,4,4,0,0,0-.51,2.2,3.8,3.8,0,0,0,.51,2.17A1.6,1.6,0,0,0,837.6,43.46Z"/><path class="cls-1" d="M849,35.39a4.74,4.74,0,0,1,3,.86,3.18,3.18,0,0,1,1,2.62v6.55h-1.87l-.53-1.33h-.07a4.12,4.12,0,0,1-1.33,1.15,4.28,4.28,0,0,1-1.93.36,3.14,3.14,0,0,1-2.17-.76,3,3,0,0,1-.87-2.35,2.6,2.6,0,0,1,1.1-2.31,6.45,6.45,0,0,1,3.29-.83l1.71-.05v-.43a1.45,1.45,0,0,0-.4-1.14,1.65,1.65,0,0,0-1.13-.36,4.8,4.8,0,0,0-1.4.21,12.68,12.68,0,0,0-1.37.51l-.88-1.81a7.84,7.84,0,0,1,1.75-.64A8.32,8.32,0,0,1,849,35.39Zm1.42,5.48-1,0a3,3,0,0,0-1.8.47,1.41,1.41,0,0,0-.5,1.13,1,1,0,0,0,.36.88,1.57,1.57,0,0,0,.93.26,2.17,2.17,0,0,0,1.46-.51,1.81,1.81,0,0,0,.59-1.45Z"/><path class="cls-1" d="M861.3,35.41l.47,0a3.42,3.42,0,0,1,.43,0L862,38l-.38-.06-.42,0a3.67,3.67,0,0,0-1.31.25,2.19,2.19,0,0,0-1,.78,2.48,2.48,0,0,0-.39,1.48v5h-2.68V35.59h2l.39,1.66h.13a4,4,0,0,1,1.19-1.3A2.9,2.9,0,0,1,861.3,35.41Z"/><path class="cls-1" d="M862.58,35.59h2.93l1.86,5.53a4.81,4.81,0,0,1,.21.83,7.55,7.55,0,0,1,.11.88h.06a7.37,7.37,0,0,1,.14-.88,7.84,7.84,0,0,1,.23-.83l1.82-5.53h2.88l-4.16,11.09A4.85,4.85,0,0,1,867,49a4.11,4.11,0,0,1-2.47.76,5.91,5.91,0,0,1-.79,0l-.58-.1V47.47a3.69,3.69,0,0,0,.47.07,3.81,3.81,0,0,0,.59,0,1.77,1.77,0,0,0,1.34-.51,3.34,3.34,0,0,0,.73-1.24l.17-.48Z"/><path class="cls-4" d="M126,103.26A10.7,10.7,0,0,0,114.06,85.6a15.06,15.06,0,0,0-3.37-2.18,10.71,10.71,0,1,0-13.55,0,15,15,0,0,0-3.52,2.31,10.68,10.68,0,0,0-10.55-.13,15.06,15.06,0,0,0-3.37-2.18,10.71,10.71,0,1,0-13.56,0c-6,2.85-9.87,9.59-9.87,18.3h4.2c0-10.76,6.25-15.57,12.45-15.57a11.53,11.53,0,0,1,6.88,2.25,10.68,10.68,0,0,0,1.65,14.87c-6,2.84-9.87,9.58-9.87,18.29h4.2C75.78,110.8,82,106,88.23,106s12.45,4.82,12.45,15.57h6.09c0-10.75,6.25-15.57,12.45-15.57s12.45,4.82,12.45,15.57h4.2C135.87,112.84,132,106.1,126,103.26ZM125.73,95a6.51,6.51,0,1,1-6.51-6.5A6.52,6.52,0,0,1,125.73,95ZM103.91,68.62a6.51,6.51,0,1,1-6.5,6.51A6.52,6.52,0,0,1,103.91,68.62ZM94.74,95a6.51,6.51,0,1,1-6.51-6.5A6.52,6.52,0,0,1,94.74,95ZM72.92,68.62a6.51,6.51,0,1,1-6.5,6.51A6.52,6.52,0,0,1,72.92,68.62Zm30.8,45.15A16.89,16.89,0,0,0,95,103.26,10.68,10.68,0,0,0,96.8,88.57a11.63,11.63,0,0,1,14-.18A10.61,10.61,0,0,0,108.51,95a10.73,10.73,0,0,0,3.93,8.29A16.94,16.94,0,0,0,103.72,113.77Z"/><polyline class="cls-5" points="191.03 126.13 171.38 106.48 191.03 86.83"/><polyline class="cls-5" points="707.13 86.83 726.79 106.48 707.13 126.13"/><path class="cls-3" d="M226.65,141.66h-4.82v-8.57h4.82v1.11h-3.53v2.44h3.31v1.1h-3.31v2.8h3.53Z"/><path class="cls-3" d="M229.84,138.36l-2.19-3.17h1.45l1.53,2.33,1.54-2.33h1.44l-2.2,3.17,2.31,3.3h-1.44l-1.65-2.47L229,141.66h-1.44Z"/><path class="cls-3" d="M237.21,140.75a2.7,2.7,0,0,0,1-.16v1a1.91,1.91,0,0,1-.55.16,3.26,3.26,0,0,1-.7.07,2.49,2.49,0,0,1-1-.18,1.45,1.45,0,0,1-.7-.62,2.4,2.4,0,0,1-.27-1.24v-3.58h-.9v-.57l1-.48.44-1.37h.78v1.45h1.85v1h-1.85v3.56a1.06,1.06,0,0,0,.26.78A1,1,0,0,0,237.21,140.75Z"/><path class="cls-3" d="M242,135.07a2.6,2.6,0,0,1,2,.79,3,3,0,0,1,.73,2.14v.7h-4.35a2.2,2.2,0,0,0,.53,1.52,1.82,1.82,0,0,0,1.39.53,4.6,4.6,0,0,0,1.11-.12,5.46,5.46,0,0,0,1-.34v1.06a4.8,4.8,0,0,1-1,.33,5.73,5.73,0,0,1-1.17.1,3.53,3.53,0,0,1-1.66-.37,2.66,2.66,0,0,1-1.12-1.11,3.69,3.69,0,0,1-.4-1.82,4.3,4.3,0,0,1,.36-1.85,2.82,2.82,0,0,1,1-1.16A3,3,0,0,1,242,135.07Zm0,1a1.43,1.43,0,0,0-1.1.44,2.12,2.12,0,0,0-.48,1.26h3.05a2.06,2.06,0,0,0-.37-1.23A1.27,1.27,0,0,0,242,136.06Z"/><path class="cls-3" d="M249.62,135.07a2.42,2.42,0,0,1,1.73.57,2.38,2.38,0,0,1,.6,1.81v4.21h-1.26v-4c0-1-.45-1.51-1.34-1.51a1.5,1.5,0,0,0-1.36.58,3.2,3.2,0,0,0-.38,1.7v3.26h-1.27v-6.47h1l.18.87h.07a1.9,1.9,0,0,1,.86-.75A2.83,2.83,0,0,1,249.62,135.07Z"/><path class="cls-3" d="M258.2,139.84a1.67,1.67,0,0,1-.69,1.45,3.29,3.29,0,0,1-1.94.49,5.6,5.6,0,0,1-1.17-.1,3.22,3.22,0,0,1-.89-.3v-1.11a5.92,5.92,0,0,0,1,.36,4,4,0,0,0,1.11.17,1.8,1.8,0,0,0,1-.23A.7.7,0,0,0,257,140a.65.65,0,0,0-.12-.39,1.26,1.26,0,0,0-.45-.36,6.66,6.66,0,0,0-1-.43,6.53,6.53,0,0,1-1.05-.49,1.93,1.93,0,0,1-.66-.6,1.6,1.6,0,0,1-.23-.88,1.46,1.46,0,0,1,.68-1.29,3.2,3.2,0,0,1,1.8-.45,5,5,0,0,1,1.11.12,5.46,5.46,0,0,1,1,.34l-.42,1a8.82,8.82,0,0,0-.86-.31,3.48,3.48,0,0,0-.9-.12c-.79,0-1.18.23-1.18.68a.63.63,0,0,0,.14.4,1.41,1.41,0,0,0,.48.33,10.14,10.14,0,0,0,1,.41,7,7,0,0,1,1,.48,1.87,1.87,0,0,1,.65.59A1.57,1.57,0,0,1,258.2,139.84Z"/><path class="cls-3" d="M260.36,132.73a.8.8,0,0,1,.5.17.82.82,0,0,1,0,1.12.75.75,0,0,1-.5.18.8.8,0,0,1-.52-.18.85.85,0,0,1,0-1.12A.85.85,0,0,1,260.36,132.73Zm.62,2.46v6.47h-1.27v-6.47Z"/><path class="cls-3" d="M268.67,138.42a3.47,3.47,0,0,1-.82,2.48,2.93,2.93,0,0,1-2.24.88,3.05,3.05,0,0,1-1.55-.39,2.75,2.75,0,0,1-1.07-1.14,3.93,3.93,0,0,1-.39-1.83,3.47,3.47,0,0,1,.82-2.48,2.91,2.91,0,0,1,2.23-.87,3.13,3.13,0,0,1,1.57.39,2.73,2.73,0,0,1,1.06,1.14A3.86,3.86,0,0,1,268.67,138.42Zm-4.76,0a3,3,0,0,0,.41,1.7,1.49,1.49,0,0,0,1.32.62,1.46,1.46,0,0,0,1.31-.62,3.65,3.65,0,0,0,0-3.4,1.51,1.51,0,0,0-1.32-.59,1.49,1.49,0,0,0-1.31.59A3,3,0,0,0,263.91,138.42Z"/><path class="cls-3" d="M273.56,135.07a2.42,2.42,0,0,1,1.73.57,2.38,2.38,0,0,1,.6,1.81v4.21h-1.26v-4c0-1-.45-1.51-1.34-1.51a1.5,1.5,0,0,0-1.36.58,3.2,3.2,0,0,0-.38,1.7v3.26h-1.27v-6.47h1l.18.87h.07a1.9,1.9,0,0,1,.86-.75A2.83,2.83,0,0,1,273.56,135.07Z"/><path class="cls-3" d="M233.76,153.74a2.15,2.15,0,0,1-.83,1.79,3.6,3.6,0,0,1-2.27.65,7.83,7.83,0,0,1-1.32-.11,4.39,4.39,0,0,1-1-.33v-1.23a6.46,6.46,0,0,0,1.13.39,4.89,4.89,0,0,0,1.32.18,2.09,2.09,0,0,0,1.29-.34,1.07,1.07,0,0,0,.44-.9,1.13,1.13,0,0,0-.2-.67,1.78,1.78,0,0,0-.61-.5,10.32,10.32,0,0,0-1.11-.5,6.16,6.16,0,0,1-1.12-.56,2.48,2.48,0,0,1-.77-.81,2.35,2.35,0,0,1-.27-1.17,2,2,0,0,1,.76-1.66,3.21,3.21,0,0,1,2-.6,5.31,5.31,0,0,1,1.29.15,6.8,6.8,0,0,1,1.13.37l-.4,1.07a7.49,7.49,0,0,0-1-.34,4.08,4.08,0,0,0-1.05-.13,1.64,1.64,0,0,0-1.08.31,1,1,0,0,0-.37.82,1.16,1.16,0,0,0,.18.66,1.52,1.52,0,0,0,.58.49,8.16,8.16,0,0,0,1,.48,7.85,7.85,0,0,1,1.23.6,2.39,2.39,0,0,1,.78.77A2.26,2.26,0,0,1,233.76,153.74Z"/><path class="cls-3" d="M237.62,155.15a2.76,2.76,0,0,0,1-.16v1a2,2,0,0,1-.56.16,3.23,3.23,0,0,1-.69.07,2.54,2.54,0,0,1-1-.18,1.49,1.49,0,0,1-.7-.62,2.41,2.41,0,0,1-.26-1.24v-3.58h-.9V150l.94-.48.45-1.37h.78v1.45h1.85v1h-1.85v3.56a1,1,0,0,0,.26.78A.94.94,0,0,0,237.62,155.15Z"/><path class="cls-3" d="M245.46,149.59v6.47h-1l-.18-.85h-.06a1.94,1.94,0,0,1-.86.74,3.09,3.09,0,0,1-1.17.23,2.47,2.47,0,0,1-1.74-.56,2.34,2.34,0,0,1-.6-1.79v-4.24h1.29v4a1.68,1.68,0,0,0,.31,1.12,1.25,1.25,0,0,0,1,.38,1.51,1.51,0,0,0,1.38-.59,3,3,0,0,0,.39-1.68v-3.28Z"/><path class="cls-3" d="M249.67,156.18a2.33,2.33,0,0,1-1.88-.84,4.76,4.76,0,0,1,0-5,2.38,2.38,0,0,1,1.9-.85,2.32,2.32,0,0,1,1.2.28,2.44,2.44,0,0,1,.75.67h.07c0-.11,0-.28-.06-.49s0-.41,0-.57v-2.42h1.27v9.12h-1l-.21-.86h-.06a2.38,2.38,0,0,1-.75.69A2.28,2.28,0,0,1,249.67,156.18Zm.3-1a1.55,1.55,0,0,0,1.32-.52,2.74,2.74,0,0,0,.39-1.57v-.19a3.41,3.41,0,0,0-.37-1.74,1.44,1.44,0,0,0-1.35-.6,1.3,1.3,0,0,0-1.18.62,3.26,3.26,0,0,0-.39,1.73,3,3,0,0,0,.39,1.68A1.35,1.35,0,0,0,250,155.14Z"/><path class="cls-3" d="M255.54,147.13a.8.8,0,0,1,.5.17.82.82,0,0,1,0,1.12.75.75,0,0,1-.5.18.8.8,0,0,1-.52-.18.85.85,0,0,1,0-1.12A.85.85,0,0,1,255.54,147.13Zm.62,2.46v6.47h-1.27v-6.47Z"/><path class="cls-3" d="M260.7,149.47a2.56,2.56,0,0,1,2,.79,3,3,0,0,1,.74,2.14v.7h-4.35a2.24,2.24,0,0,0,.52,1.52,1.85,1.85,0,0,0,1.4.53,4.6,4.6,0,0,0,1.11-.12,5.14,5.14,0,0,0,1-.34v1.06a4.53,4.53,0,0,1-1,.33,5.77,5.77,0,0,1-1.18.1,3.52,3.52,0,0,1-1.65-.37,2.61,2.61,0,0,1-1.12-1.11,3.68,3.68,0,0,1-.41-1.82,4.29,4.29,0,0,1,.37-1.85,2.69,2.69,0,0,1,1-1.16A3,3,0,0,1,260.7,149.47Zm0,1a1.42,1.42,0,0,0-1.1.44,2.06,2.06,0,0,0-.48,1.26h3a2.06,2.06,0,0,0-.36-1.23A1.27,1.27,0,0,0,260.7,150.46Z"/><path class="cls-3" d="M269.32,154.24a1.67,1.67,0,0,1-.69,1.45,3.29,3.29,0,0,1-1.94.49,5.6,5.6,0,0,1-1.17-.1,3.29,3.29,0,0,1-.9-.3v-1.11a5.92,5.92,0,0,0,1,.36,4,4,0,0,0,1.11.17,1.84,1.84,0,0,0,1-.23.72.72,0,0,0,.32-.61A.65.65,0,0,0,268,154a1.26,1.26,0,0,0-.45-.36,6.38,6.38,0,0,0-1-.43,7.46,7.46,0,0,1-1.05-.49,2,2,0,0,1-.65-.6,1.6,1.6,0,0,1-.23-.88,1.46,1.46,0,0,1,.68-1.29,3.19,3.19,0,0,1,1.79-.45,4.84,4.84,0,0,1,1.11.12,5.31,5.31,0,0,1,1,.34l-.42,1a8.14,8.14,0,0,0-.87-.31,3.37,3.37,0,0,0-.9-.12c-.78,0-1.17.23-1.17.68a.58.58,0,0,0,.14.4,1.41,1.41,0,0,0,.48.33,9.09,9.09,0,0,0,.95.41,6.37,6.37,0,0,1,1,.48,1.82,1.82,0,0,1,.66.59A1.57,1.57,0,0,1,269.32,154.24Z"/><path class="cls-3" d="M308.41,137.29a4.2,4.2,0,0,1-1.19,3.27,4.77,4.77,0,0,1-3.34,1.1h-2.4v-8.57h2.65a5,5,0,0,1,2.27.48,3.46,3.46,0,0,1,1.49,1.42A4.63,4.63,0,0,1,308.41,137.29Zm-1.35,0a3.19,3.19,0,0,0-.78-2.38,3.07,3.07,0,0,0-2.23-.77h-1.28v6.39h1.05Q307.06,140.57,307.06,137.33Z"/><path class="cls-3" d="M310.78,132.73a.8.8,0,0,1,.5.17.82.82,0,0,1,0,1.12.75.75,0,0,1-.5.18.8.8,0,0,1-.52-.18.85.85,0,0,1,0-1.12A.85.85,0,0,1,310.78,132.73Zm.62,2.46v6.47h-1.27v-6.47Z"/><path class="cls-3" d="M316.59,135.07a3.8,3.8,0,0,1,.7.06l-.13,1.19a2.32,2.32,0,0,0-.65-.08,1.81,1.81,0,0,0-1.59.93,2.16,2.16,0,0,0-.25,1.08v3.41h-1.28v-6.47h1l.17,1.15h.05a3.07,3.07,0,0,1,.8-.89A1.93,1.93,0,0,1,316.59,135.07Z"/><path class="cls-3" d="M321,135.07a2.58,2.58,0,0,1,2,.79,3,3,0,0,1,.73,2.14v.7h-4.34a2.24,2.24,0,0,0,.52,1.52,1.84,1.84,0,0,0,1.4.53,4.6,4.6,0,0,0,1.11-.12,5.37,5.37,0,0,0,1-.34v1.06a4.71,4.71,0,0,1-1,.33,5.77,5.77,0,0,1-1.18.1,3.52,3.52,0,0,1-1.65-.37,2.69,2.69,0,0,1-1.13-1.11,3.8,3.8,0,0,1-.4-1.82,4.15,4.15,0,0,1,.37-1.85,2.69,2.69,0,0,1,1-1.16A2.9,2.9,0,0,1,321,135.07Zm0,1a1.42,1.42,0,0,0-1.1.44,2.07,2.07,0,0,0-.49,1.26h3.05a2.13,2.13,0,0,0-.36-1.23A1.28,1.28,0,0,0,321,136.06Z"/><path class="cls-3" d="M328,141.78a3,3,0,0,1-2.16-.8,3.4,3.4,0,0,1-.81-2.51,4.23,4.23,0,0,1,.39-1.95,2.55,2.55,0,0,1,1.09-1.09,3.45,3.45,0,0,1,1.59-.36,4.6,4.6,0,0,1,1,.11,3.65,3.65,0,0,1,.79.26l-.39,1c-.22-.08-.46-.16-.71-.23a3,3,0,0,0-.71-.1c-1.17,0-1.76.77-1.76,2.31a2.85,2.85,0,0,0,.43,1.68,1.51,1.51,0,0,0,1.28.57,3.53,3.53,0,0,0,.95-.12,3.67,3.67,0,0,0,.76-.31v1.1a2.46,2.46,0,0,1-.75.3A4.17,4.17,0,0,1,328,141.78Z"/><path class="cls-3" d="M333.57,140.75a2.7,2.7,0,0,0,1-.16v1a2,2,0,0,1-.55.16,3.39,3.39,0,0,1-.7.07,2.58,2.58,0,0,1-1-.18,1.49,1.49,0,0,1-.7-.62,2.51,2.51,0,0,1-.26-1.24v-3.58h-.9v-.57l1-.48.44-1.37h.78v1.45h1.85v1h-1.85v3.56a1,1,0,0,0,.26.78A1,1,0,0,0,333.57,140.75Z"/><path class="cls-3" d="M335.28,139V137.9h3V139Z"/><path class="cls-3" d="M342,140.75a2.7,2.7,0,0,0,1-.16v1a2,2,0,0,1-.55.16,3.39,3.39,0,0,1-.7.07,2.54,2.54,0,0,1-1-.18,1.49,1.49,0,0,1-.7-.62,2.51,2.51,0,0,1-.26-1.24v-3.58h-.9v-.57l.95-.48.44-1.37h.78v1.45h1.85v1h-1.85v3.56a1,1,0,0,0,.26.78A1,1,0,0,0,342,140.75Z"/><path class="cls-3" d="M350,138.42a3.47,3.47,0,0,1-.82,2.48,2.93,2.93,0,0,1-2.24.88,3.05,3.05,0,0,1-1.55-.39,2.75,2.75,0,0,1-1.07-1.14,3.93,3.93,0,0,1-.39-1.83,3.47,3.47,0,0,1,.82-2.48,2.91,2.91,0,0,1,2.23-.87,3.06,3.06,0,0,1,1.56.39,2.69,2.69,0,0,1,1.07,1.14A3.86,3.86,0,0,1,350,138.42Zm-4.76,0a3,3,0,0,0,.41,1.7,1.49,1.49,0,0,0,1.32.62,1.46,1.46,0,0,0,1.31-.62,3.65,3.65,0,0,0,0-3.4,1.51,1.51,0,0,0-1.32-.59,1.47,1.47,0,0,0-1.31.59A3,3,0,0,0,345.23,138.42Z"/><path class="cls-3" d="M351.05,139V137.9h3V139Z"/><path class="cls-3" d="M358,133.09a3.66,3.66,0,0,1,2.45.68,2.39,2.39,0,0,1,.76,1.89,2.9,2.9,0,0,1-.31,1.34,2.36,2.36,0,0,1-1.07,1,4.32,4.32,0,0,1-2,.39h-.92v3.25h-1.3v-8.57Zm-.1,1.09h-1v3.14h.77a3.12,3.12,0,0,0,1.66-.37,1.65,1.65,0,0,0,.07-2.39A2.43,2.43,0,0,0,357.91,134.18Z"/><path class="cls-3" d="M365.32,135.07a2.65,2.65,0,0,1,1.81.54,2.08,2.08,0,0,1,.61,1.67v4.38h-.9l-.25-.9h0a2.82,2.82,0,0,1-.88.77,2.7,2.7,0,0,1-1.28.25,2.23,2.23,0,0,1-1.45-.47,1.8,1.8,0,0,1-.58-1.49,1.7,1.7,0,0,1,.75-1.5,4.34,4.34,0,0,1,2.29-.56l1.1,0v-.36a1.09,1.09,0,0,0-1.23-1.29,3.31,3.31,0,0,0-.95.14,6.2,6.2,0,0,0-.88.35l-.41-.92a5.6,5.6,0,0,1,1.05-.41A5.1,5.1,0,0,1,365.32,135.07Zm1.16,3.48-.86,0a2.78,2.78,0,0,0-1.53.37,1,1,0,0,0-.43.89.86.86,0,0,0,.3.73,1.27,1.27,0,0,0,.78.23,1.84,1.84,0,0,0,1.24-.42,1.56,1.56,0,0,0,.5-1.26Z"/><path class="cls-3" d="M372,140.75a2.76,2.76,0,0,0,1-.16v1a2,2,0,0,1-.56.16,3.23,3.23,0,0,1-.69.07,2.54,2.54,0,0,1-1-.18,1.49,1.49,0,0,1-.7-.62,2.41,2.41,0,0,1-.26-1.24v-3.58h-.9v-.57l.94-.48.45-1.37h.78v1.45h1.85v1h-1.85v3.56a1,1,0,0,0,.26.78A.94.94,0,0,0,372,140.75Z"/><path class="cls-3" d="M374.94,132.73a.8.8,0,0,1,.5.17.82.82,0,0,1,0,1.12.75.75,0,0,1-.5.18.8.8,0,0,1-.52-.18.85.85,0,0,1,0-1.12A.85.85,0,0,1,374.94,132.73Zm.62,2.46v6.47h-1.27v-6.47Z"/><path class="cls-3" d="M380.1,135.07a2.56,2.56,0,0,1,2,.79,3,3,0,0,1,.74,2.14v.7h-4.35a2.24,2.24,0,0,0,.52,1.52,1.85,1.85,0,0,0,1.4.53,4.6,4.6,0,0,0,1.11-.12,5.14,5.14,0,0,0,1-.34v1.06a4.53,4.53,0,0,1-1,.33,5.77,5.77,0,0,1-1.18.1,3.52,3.52,0,0,1-1.65-.37,2.61,2.61,0,0,1-1.12-1.11,3.68,3.68,0,0,1-.41-1.82,4.29,4.29,0,0,1,.37-1.85,2.69,2.69,0,0,1,1-1.16A3,3,0,0,1,380.1,135.07Zm0,1a1.42,1.42,0,0,0-1.1.44,2.06,2.06,0,0,0-.48,1.26h3a2.06,2.06,0,0,0-.36-1.23A1.27,1.27,0,0,0,380.1,136.06Z"/><path class="cls-3" d="M387.7,135.07a2.07,2.07,0,0,1,2.32,2.38v4.21h-1.26v-4c0-1-.44-1.51-1.33-1.51a1.5,1.5,0,0,0-1.36.58,3.2,3.2,0,0,0-.38,1.7v3.26h-1.27v-6.47h1l.18.87h.07a1.85,1.85,0,0,1,.86-.75A2.83,2.83,0,0,1,387.7,135.07Z"/><path class="cls-3" d="M394.31,140.75a2.7,2.7,0,0,0,1-.16v1a2,2,0,0,1-.55.16,3.33,3.33,0,0,1-.7.07,2.49,2.49,0,0,1-1-.18,1.47,1.47,0,0,1-.71-.62,2.51,2.51,0,0,1-.26-1.24v-3.58h-.9v-.57l.95-.48.44-1.37h.78v1.45h1.85v1h-1.85v3.56a1.06,1.06,0,0,0,.26.78A1,1,0,0,0,394.31,140.75Z"/><path class="cls-3" d="M333,153.74a2.15,2.15,0,0,1-.82,1.79,3.62,3.62,0,0,1-2.27.65,7.83,7.83,0,0,1-1.32-.11,4.33,4.33,0,0,1-1.05-.33v-1.23a6.46,6.46,0,0,0,1.13.39,4.89,4.89,0,0,0,1.32.18,2.13,2.13,0,0,0,1.3-.34,1.06,1.06,0,0,0,.43-.9,1.13,1.13,0,0,0-.19-.67,1.93,1.93,0,0,0-.62-.5,8.78,8.78,0,0,0-1.11-.5,6.16,6.16,0,0,1-1.12-.56,2.44,2.44,0,0,1-.76-.81,2.25,2.25,0,0,1-.28-1.17,2,2,0,0,1,.77-1.66,3.16,3.16,0,0,1,2-.6,5.19,5.19,0,0,1,1.29.15,6.91,6.91,0,0,1,1.14.37l-.41,1.07a7.36,7.36,0,0,0-1-.34,4.08,4.08,0,0,0-1.05-.13,1.64,1.64,0,0,0-1.08.31,1,1,0,0,0-.37.82,1.16,1.16,0,0,0,.18.66,1.56,1.56,0,0,0,.57.49,8.38,8.38,0,0,0,1.05.48,8.31,8.31,0,0,1,1.23.6,2.36,2.36,0,0,1,.77.77A2.16,2.16,0,0,1,333,153.74Z"/><path class="cls-3" d="M336.82,155.15a2.7,2.7,0,0,0,1-.16v1a2,2,0,0,1-.55.16,3.33,3.33,0,0,1-.7.07,2.49,2.49,0,0,1-1-.18,1.47,1.47,0,0,1-.71-.62,2.51,2.51,0,0,1-.26-1.24v-3.58h-.9V150l1-.48.44-1.37h.78v1.45h1.85v1h-1.85v3.56a1.06,1.06,0,0,0,.26.78A1,1,0,0,0,336.82,155.15Z"/><path class="cls-3" d="M344.65,149.59v6.47h-1l-.18-.85h-.06a1.88,1.88,0,0,1-.86.74,3.08,3.08,0,0,1-1.16.23,2.47,2.47,0,0,1-1.74-.56,2.31,2.31,0,0,1-.6-1.79v-4.24h1.28v4a1.68,1.68,0,0,0,.32,1.12,1.22,1.22,0,0,0,1,.38,1.54,1.54,0,0,0,1.38-.59,3.09,3.09,0,0,0,.38-1.68v-3.28Z"/><path class="cls-3" d="M348.87,156.18a2.34,2.34,0,0,1-1.89-.84,4.76,4.76,0,0,1,0-5,2.4,2.4,0,0,1,1.9-.85,2.27,2.27,0,0,1,1.2.28,2.44,2.44,0,0,1,.75.67h.08c0-.11,0-.28-.06-.49a4.21,4.21,0,0,1,0-.57v-2.42h1.27v9.12h-1l-.22-.86h-.06a2.34,2.34,0,0,1-.74.69A2.31,2.31,0,0,1,348.87,156.18Zm.3-1a1.53,1.53,0,0,0,1.31-.52,2.74,2.74,0,0,0,.39-1.57v-.19a3.31,3.31,0,0,0-.37-1.74,1.44,1.44,0,0,0-1.35-.6,1.28,1.28,0,0,0-1.17.62,3.16,3.16,0,0,0-.4,1.73,2.94,2.94,0,0,0,.4,1.68A1.34,1.34,0,0,0,349.17,155.14Z"/><path class="cls-3" d="M354.73,147.13a.82.82,0,0,1,.51.17.85.85,0,0,1,0,1.12.78.78,0,0,1-.51.18.76.76,0,0,1-.51-.18.82.82,0,0,1,0-1.12A.8.8,0,0,1,354.73,147.13Zm.63,2.46v6.47h-1.27v-6.47Z"/><path class="cls-3" d="M359.89,149.47a2.6,2.6,0,0,1,2,.79,3,3,0,0,1,.73,2.14v.7h-4.35a2.2,2.2,0,0,0,.53,1.52,1.82,1.82,0,0,0,1.39.53,4.6,4.6,0,0,0,1.11-.12,5.46,5.46,0,0,0,1-.34v1.06a4.8,4.8,0,0,1-1,.33,5.73,5.73,0,0,1-1.17.1,3.53,3.53,0,0,1-1.66-.37,2.66,2.66,0,0,1-1.12-1.11,3.69,3.69,0,0,1-.4-1.82,4.3,4.3,0,0,1,.36-1.85,2.82,2.82,0,0,1,1-1.16A3,3,0,0,1,359.89,149.47Zm0,1a1.43,1.43,0,0,0-1.1.44,2.12,2.12,0,0,0-.48,1.26h3.05a2.06,2.06,0,0,0-.37-1.23A1.27,1.27,0,0,0,359.89,150.46Z"/><path class="cls-3" d="M368.51,154.24a1.67,1.67,0,0,1-.69,1.45,3.29,3.29,0,0,1-1.94.49,5.6,5.6,0,0,1-1.17-.1,3.22,3.22,0,0,1-.89-.3v-1.11a5.92,5.92,0,0,0,1,.36,4,4,0,0,0,1.11.17,1.8,1.8,0,0,0,1-.23.7.7,0,0,0,.32-.61.65.65,0,0,0-.12-.39,1.26,1.26,0,0,0-.45-.36,6.66,6.66,0,0,0-1-.43,6.53,6.53,0,0,1-1.05-.49,1.93,1.93,0,0,1-.66-.6,1.6,1.6,0,0,1-.23-.88,1.46,1.46,0,0,1,.68-1.29,3.2,3.2,0,0,1,1.8-.45,5,5,0,0,1,1.11.12,5.46,5.46,0,0,1,1,.34l-.42,1a8.82,8.82,0,0,0-.86-.31,3.48,3.48,0,0,0-.9-.12c-.79,0-1.18.23-1.18.68a.63.63,0,0,0,.14.4,1.41,1.41,0,0,0,.48.33,10.14,10.14,0,0,0,.95.41,7,7,0,0,1,1,.48,1.87,1.87,0,0,1,.65.59A1.57,1.57,0,0,1,368.51,154.24Z"/><path class="cls-3" d="M436.94,141.66h-4.82v-8.57h4.82v1.11h-3.53v2.44h3.31v1.1h-3.31v2.8h3.53Z"/><path class="cls-3" d="M441.93,135.07a2.42,2.42,0,0,1,1.73.57,2.38,2.38,0,0,1,.6,1.81v4.21H443v-4c0-1-.44-1.51-1.33-1.51a1.48,1.48,0,0,0-1.36.58,3.1,3.1,0,0,0-.38,1.7v3.26h-1.27v-6.47h1l.18.87h.08a1.82,1.82,0,0,1,.85-.75A2.87,2.87,0,0,1,441.93,135.07Z"/><path class="cls-3" d="M449.41,135.07a4,4,0,0,1,.71.06l-.14,1.19a2.25,2.25,0,0,0-.64-.08,1.83,1.83,0,0,0-.92.24,1.78,1.78,0,0,0-.67.69,2.06,2.06,0,0,0-.26,1.08v3.41h-1.27v-6.47h1l.17,1.15h.05a3.07,3.07,0,0,1,.8-.89A1.93,1.93,0,0,1,449.41,135.07Z"/><path class="cls-3" d="M452,132.73a.82.82,0,0,1,.51.17.85.85,0,0,1,0,1.12.78.78,0,0,1-.51.18.76.76,0,0,1-.51-.18.82.82,0,0,1,0-1.12A.8.8,0,0,1,452,132.73Zm.63,2.46v6.47h-1.27v-6.47Z"/><path class="cls-3" d="M457.18,141.78A3,3,0,0,1,455,141a3.4,3.4,0,0,1-.81-2.51,4.23,4.23,0,0,1,.39-1.95,2.52,2.52,0,0,1,1.1-1.09,3.38,3.38,0,0,1,1.58-.36,4.6,4.6,0,0,1,1,.11,3.65,3.65,0,0,1,.79.26l-.38,1c-.23-.08-.46-.16-.71-.23a3.12,3.12,0,0,0-.72-.1c-1.17,0-1.75.77-1.75,2.31a2.78,2.78,0,0,0,.43,1.68,1.5,1.5,0,0,0,1.27.57,3.48,3.48,0,0,0,.95-.12,3.76,3.76,0,0,0,.77-.31v1.1a2.62,2.62,0,0,1-.76.3A4.06,4.06,0,0,1,457.18,141.78Z"/><path class="cls-3" d="M461.73,132.54V135c0,.2,0,.4,0,.6s0,.36,0,.49h.08a1.94,1.94,0,0,1,.84-.74,2.67,2.67,0,0,1,1.13-.25,2.47,2.47,0,0,1,1.75.57,2.35,2.35,0,0,1,.6,1.8v4.21H464.8v-4c0-1-.44-1.51-1.33-1.51a1.49,1.49,0,0,0-1.37.6,3.28,3.28,0,0,0-.37,1.69v3.25h-1.27v-9.12Z"/><path class="cls-3" d="M470.56,135.07a2.6,2.6,0,0,1,2,.79,3,3,0,0,1,.73,2.14v.7H469a2.19,2.19,0,0,0,.52,1.52,1.84,1.84,0,0,0,1.4.53,4.72,4.72,0,0,0,1.11-.12,5.63,5.63,0,0,0,1-.34v1.06a4.8,4.8,0,0,1-1,.33,5.67,5.67,0,0,1-1.17.1,3.53,3.53,0,0,1-1.66-.37,2.66,2.66,0,0,1-1.12-1.11,3.69,3.69,0,0,1-.4-1.82,4.3,4.3,0,0,1,.36-1.85,2.82,2.82,0,0,1,1-1.16A3,3,0,0,1,470.56,135.07Zm0,1a1.4,1.4,0,0,0-1.09.44,2.07,2.07,0,0,0-.49,1.26h3a2.06,2.06,0,0,0-.37-1.23A1.26,1.26,0,0,0,470.56,136.06Z"/><path class="cls-3" d="M477.1,141.78a2.33,2.33,0,0,1-1.88-.84,4.76,4.76,0,0,1,0-5,2.38,2.38,0,0,1,1.9-.85,2.29,2.29,0,0,1,1.2.28,2.44,2.44,0,0,1,.75.67h.08c0-.11,0-.28-.07-.49s0-.41,0-.57v-2.42h1.27v9.12h-1l-.22-.86h-.06a2.22,2.22,0,0,1-2,1Zm.3-1a1.54,1.54,0,0,0,1.32-.52,2.74,2.74,0,0,0,.39-1.57v-.19a3.31,3.31,0,0,0-.37-1.74,1.44,1.44,0,0,0-1.35-.6,1.28,1.28,0,0,0-1.17.62,3.16,3.16,0,0,0-.4,1.73,2.94,2.94,0,0,0,.4,1.68A1.33,1.33,0,0,0,477.4,140.74Z"/><path class="cls-3" d="M441.15,153.74a2.15,2.15,0,0,1-.83,1.79,3.6,3.6,0,0,1-2.27.65,7.83,7.83,0,0,1-1.32-.11,4.11,4.11,0,0,1-1-.33v-1.23a6.33,6.33,0,0,0,1.12.39,5,5,0,0,0,1.32.18,2.13,2.13,0,0,0,1.3-.34,1.06,1.06,0,0,0,.43-.9,1.13,1.13,0,0,0-.19-.67,1.82,1.82,0,0,0-.62-.5,8.78,8.78,0,0,0-1.11-.5,6.06,6.06,0,0,1-1.11-.56,2.38,2.38,0,0,1-.77-.81,2.25,2.25,0,0,1-.28-1.17,2,2,0,0,1,.77-1.66,3.17,3.17,0,0,1,2-.6,5.31,5.31,0,0,1,1.29.15,7.11,7.11,0,0,1,1.13.37l-.41,1.07a7.36,7.36,0,0,0-1-.34,4.08,4.08,0,0,0-1.05-.13,1.64,1.64,0,0,0-1.08.31,1,1,0,0,0-.37.82,1.16,1.16,0,0,0,.18.66,1.56,1.56,0,0,0,.57.49,9.11,9.11,0,0,0,1.05.48,7.85,7.85,0,0,1,1.23.6,2.26,2.26,0,0,1,.77.77A2.16,2.16,0,0,1,441.15,153.74Z"/><path class="cls-3" d="M445,155.15a2.7,2.7,0,0,0,1-.16v1a1.91,1.91,0,0,1-.55.16,3.26,3.26,0,0,1-.7.07,2.49,2.49,0,0,1-1-.18,1.45,1.45,0,0,1-.7-.62,2.4,2.4,0,0,1-.27-1.24v-3.58h-.9V150l1-.48.44-1.37h.78v1.45h1.85v1h-1.85v3.56a1.06,1.06,0,0,0,.26.78A1,1,0,0,0,445,155.15Z"/><path class="cls-3" d="M452.85,149.59v6.47h-1l-.18-.85h-.06a1.91,1.91,0,0,1-.87.74,3,3,0,0,1-1.16.23,2.47,2.47,0,0,1-1.74-.56,2.34,2.34,0,0,1-.6-1.79v-4.24h1.28v4a1.68,1.68,0,0,0,.32,1.12,1.22,1.22,0,0,0,1,.38,1.54,1.54,0,0,0,1.38-.59,3,3,0,0,0,.38-1.68v-3.28Z"/><path class="cls-3" d="M457.06,156.18a2.35,2.35,0,0,1-1.89-.84,4.79,4.79,0,0,1,0-5,2.38,2.38,0,0,1,1.89-.85,2.27,2.27,0,0,1,1.2.28,2.48,2.48,0,0,1,.76.67h.07c0-.11,0-.28-.06-.49s0-.41,0-.57v-2.42h1.28v9.12h-1l-.22-.86H459a2.34,2.34,0,0,1-.74.69A2.31,2.31,0,0,1,457.06,156.18Zm.3-1a1.53,1.53,0,0,0,1.31-.52,2.74,2.74,0,0,0,.39-1.57v-.19a3.42,3.42,0,0,0-.36-1.74,1.46,1.46,0,0,0-1.35-.6,1.29,1.29,0,0,0-1.18.62,3.26,3.26,0,0,0-.4,1.73,3,3,0,0,0,.4,1.68A1.34,1.34,0,0,0,457.36,155.14Z"/><path class="cls-3" d="M462.93,147.13a.8.8,0,0,1,.5.17.82.82,0,0,1,0,1.12.75.75,0,0,1-.5.18.78.78,0,0,1-.52-.18.82.82,0,0,1,0-1.12A.83.83,0,0,1,462.93,147.13Zm.62,2.46v6.47h-1.27v-6.47Z"/><path class="cls-3" d="M468.09,149.47a2.59,2.59,0,0,1,2,.79,3,3,0,0,1,.73,2.14v.7h-4.34a2.19,2.19,0,0,0,.52,1.52,1.84,1.84,0,0,0,1.4.53,4.72,4.72,0,0,0,1.11-.12,5.37,5.37,0,0,0,1-.34v1.06a4.92,4.92,0,0,1-1,.33,5.84,5.84,0,0,1-1.18.1,3.56,3.56,0,0,1-1.66-.37,2.66,2.66,0,0,1-1.12-1.11,3.69,3.69,0,0,1-.4-1.82,4.15,4.15,0,0,1,.37-1.85,2.73,2.73,0,0,1,1-1.16A3,3,0,0,1,468.09,149.47Zm0,1a1.4,1.4,0,0,0-1.1.44,2.07,2.07,0,0,0-.49,1.26h3.05a2.06,2.06,0,0,0-.37-1.23A1.25,1.25,0,0,0,468.09,150.46Z"/><path class="cls-3" d="M476.7,154.24a1.67,1.67,0,0,1-.69,1.45,3.27,3.27,0,0,1-1.94.49,5.73,5.73,0,0,1-1.17-.1,3.22,3.22,0,0,1-.89-.3v-1.11a5.92,5.92,0,0,0,1,.36,4,4,0,0,0,1.11.17,1.86,1.86,0,0,0,1-.23.72.72,0,0,0,.32-.61.59.59,0,0,0-.13-.39,1.17,1.17,0,0,0-.45-.36,6.19,6.19,0,0,0-1-.43,6.53,6.53,0,0,1-1.05-.49,2,2,0,0,1-.66-.6,1.6,1.6,0,0,1-.22-.88,1.44,1.44,0,0,1,.68-1.29,3.16,3.16,0,0,1,1.79-.45,5,5,0,0,1,1.11.12,5.22,5.22,0,0,1,1,.34l-.42,1a8.82,8.82,0,0,0-.86-.31,3.48,3.48,0,0,0-.9-.12c-.78,0-1.18.23-1.18.68a.63.63,0,0,0,.14.4,1.41,1.41,0,0,0,.48.33c.23.12.55.25.95.41a6.11,6.11,0,0,1,1,.48,1.87,1.87,0,0,1,.65.59A1.5,1.5,0,0,1,476.7,154.24Z"/><path class="cls-3" d="M525.49,133.09a3.66,3.66,0,0,1,2.45.68,2.39,2.39,0,0,1,.77,1.89,2.91,2.91,0,0,1-.32,1.34,2.38,2.38,0,0,1-1.06,1,4.4,4.4,0,0,1-2,.39h-.92v3.25h-1.3v-8.57Zm-.1,1.09h-1v3.14h.78a3.1,3.1,0,0,0,1.65-.37,1.65,1.65,0,0,0,.07-2.39A2.43,2.43,0,0,0,525.39,134.18Z"/><path class="cls-3" d="M533.48,135.07a3.92,3.92,0,0,1,.71.06l-.13,1.19a2.36,2.36,0,0,0-.65-.08,1.81,1.81,0,0,0-1.59.93,2.16,2.16,0,0,0-.26,1.08v3.41h-1.27v-6.47h1l.17,1.15h0a3,3,0,0,1,.81-.89A1.88,1.88,0,0,1,533.48,135.07Z"/><path class="cls-3" d="M537.9,135.07a2.67,2.67,0,0,1,1.82.54,2.11,2.11,0,0,1,.6,1.67v4.38h-.9l-.25-.9h0a2.82,2.82,0,0,1-.88.77,2.67,2.67,0,0,1-1.28.25,2.23,2.23,0,0,1-1.45-.47,1.84,1.84,0,0,1-.58-1.49,1.7,1.7,0,0,1,.75-1.5,4.36,4.36,0,0,1,2.29-.56l1.1,0v-.36a1.29,1.29,0,0,0-.32-1,1.34,1.34,0,0,0-.91-.29,3.31,3.31,0,0,0-1,.14,6.72,6.72,0,0,0-.88.35l-.4-.92a5.11,5.11,0,0,1,1-.41A5,5,0,0,1,537.9,135.07Zm1.16,3.48-.86,0a2.78,2.78,0,0,0-1.53.37,1,1,0,0,0-.43.89.86.86,0,0,0,.3.73,1.27,1.27,0,0,0,.78.23,1.84,1.84,0,0,0,1.24-.42,1.53,1.53,0,0,0,.5-1.26Z"/><path class="cls-3" d="M544.51,135.07a2.6,2.6,0,0,1,1.13.24,2.28,2.28,0,0,1,.85.73h.06l.14-.85h1v6.55c0,1.87-1,2.8-3,2.8a7.42,7.42,0,0,1-1.29-.1,4.51,4.51,0,0,1-1.08-.3V143a4.69,4.69,0,0,0,1.13.38,6.86,6.86,0,0,0,1.31.12,1.62,1.62,0,0,0,1.22-.45,1.74,1.74,0,0,0,.44-1.26v-.22c0-.1,0-.24,0-.41s0-.29,0-.38h0a2.07,2.07,0,0,1-.82.74,2.63,2.63,0,0,1-1.12.23,2.27,2.27,0,0,1-1.91-.88,4.73,4.73,0,0,1,0-4.92A2.25,2.25,0,0,1,544.51,135.07Zm.26,1.06a1.3,1.3,0,0,0-1.15.59,3.11,3.11,0,0,0-.41,1.74,3,3,0,0,0,.41,1.71,1.33,1.33,0,0,0,1.18.59,1.6,1.6,0,0,0,1.3-.49,2.41,2.41,0,0,0,.41-1.59v-.24a2.93,2.93,0,0,0-.42-1.78A1.59,1.59,0,0,0,544.77,136.13Z"/><path class="cls-3" d="M557,135.07a2.19,2.19,0,0,1,1.64.57,2.5,2.5,0,0,1,.55,1.81v4.21h-1.27v-4c0-1-.4-1.5-1.21-1.5a1.39,1.39,0,0,0-1.24.53,2.66,2.66,0,0,0-.37,1.53v3.48h-1.26v-4c0-1-.41-1.5-1.22-1.5a1.34,1.34,0,0,0-1.26.58,3.43,3.43,0,0,0-.34,1.7v3.26h-1.27v-6.47h1l.18.87H551a1.83,1.83,0,0,1,.81-.75,2.51,2.51,0,0,1,1.08-.24,1.94,1.94,0,0,1,2,1.05h.1a1.88,1.88,0,0,1,.86-.79A2.77,2.77,0,0,1,557,135.07Z"/><path class="cls-3" d="M563.61,135.07a2.66,2.66,0,0,1,1.82.54,2.08,2.08,0,0,1,.61,1.67v4.38h-.9l-.25-.9h0a2.93,2.93,0,0,1-.88.77,2.7,2.7,0,0,1-1.28.25,2.22,2.22,0,0,1-1.45-.47,1.8,1.8,0,0,1-.58-1.49,1.7,1.7,0,0,1,.75-1.5,4.34,4.34,0,0,1,2.29-.56l1.1,0v-.36a1.33,1.33,0,0,0-.32-1,1.35,1.35,0,0,0-.92-.29,3.24,3.24,0,0,0-.94.14,6.2,6.2,0,0,0-.88.35l-.41-.92a5.6,5.6,0,0,1,1-.41A5.08,5.08,0,0,1,563.61,135.07Zm1.17,3.48-.87,0a2.83,2.83,0,0,0-1.53.37,1.05,1.05,0,0,0-.42.89.86.86,0,0,0,.3.73,1.27,1.27,0,0,0,.78.23,1.86,1.86,0,0,0,1.24-.42,1.56,1.56,0,0,0,.5-1.26Z"/><path class="cls-3" d="M570.32,140.75a2.67,2.67,0,0,0,1-.16v1a1.91,1.91,0,0,1-.55.16,3.23,3.23,0,0,1-.69.07,2.5,2.5,0,0,1-1-.18,1.45,1.45,0,0,1-.7-.62,2.4,2.4,0,0,1-.27-1.24v-3.58h-.9v-.57l.95-.48.44-1.37h.79v1.45h1.84v1h-1.84v3.56a1.06,1.06,0,0,0,.25.78A1,1,0,0,0,570.32,140.75Z"/><path class="cls-3" d="M573.24,132.73a.8.8,0,0,1,.5.17.82.82,0,0,1,0,1.12.75.75,0,0,1-.5.18.8.8,0,0,1-.52-.18.85.85,0,0,1,0-1.12A.85.85,0,0,1,573.24,132.73Zm.62,2.46v6.47h-1.27v-6.47Z"/><path class="cls-3" d="M578.46,141.78a3,3,0,0,1-2.16-.8,3.36,3.36,0,0,1-.82-2.51,4.1,4.1,0,0,1,.4-1.95,2.5,2.5,0,0,1,1.09-1.09,3.38,3.38,0,0,1,1.58-.36,4.76,4.76,0,0,1,1,.11,3.74,3.74,0,0,1,.78.26l-.38,1c-.23-.08-.46-.16-.71-.23a3.12,3.12,0,0,0-.72-.1c-1.17,0-1.75.77-1.75,2.31a2.78,2.78,0,0,0,.43,1.68,1.5,1.5,0,0,0,1.27.57,3.48,3.48,0,0,0,1-.12,3.54,3.54,0,0,0,.77-.31v1.1a2.51,2.51,0,0,1-.76.3A4,4,0,0,1,578.46,141.78Z"/><path class="cls-3" d="M539.82,156.06h-1.29v-7.45H536v-1.12h6.43v1.12h-2.57Z"/><path class="cls-3" d="M546.75,149.47a4,4,0,0,1,.71.06l-.14,1.19a2.25,2.25,0,0,0-.64-.08,1.83,1.83,0,0,0-.92.24,1.78,1.78,0,0,0-.67.69,2.06,2.06,0,0,0-.26,1.08v3.41h-1.27v-6.47h1l.17,1.15h0a3.07,3.07,0,0,1,.8-.89A1.93,1.93,0,0,1,546.75,149.47Z"/><path class="cls-3" d="M549.3,147.13a.82.82,0,0,1,.51.17.85.85,0,0,1,0,1.12.78.78,0,0,1-.51.18.76.76,0,0,1-.51-.18.82.82,0,0,1,0-1.12A.8.8,0,0,1,549.3,147.13Zm.63,2.46v6.47h-1.27v-6.47Z"/><path class="cls-3" d="M554.43,149.47a2.67,2.67,0,0,1,1.82.54,2.11,2.11,0,0,1,.6,1.67v4.38H556l-.25-.9h-.05a2.82,2.82,0,0,1-.88.77,2.67,2.67,0,0,1-1.28.25,2.23,2.23,0,0,1-1.45-.47,1.84,1.84,0,0,1-.58-1.49,1.7,1.7,0,0,1,.75-1.5,4.34,4.34,0,0,1,2.29-.56l1.1,0v-.36a1.29,1.29,0,0,0-.32-1,1.34,1.34,0,0,0-.91-.29,3.31,3.31,0,0,0-1,.14,6.72,6.72,0,0,0-.88.35l-.4-.92a5.11,5.11,0,0,1,1.05-.41A5,5,0,0,1,554.43,149.47Zm1.16,3.48-.86,0a2.78,2.78,0,0,0-1.53.37,1,1,0,0,0-.43.89.86.86,0,0,0,.3.73,1.27,1.27,0,0,0,.78.23,1.84,1.84,0,0,0,1.24-.42,1.53,1.53,0,0,0,.5-1.26Z"/><path class="cls-3" d="M560.08,156.06h-1.27v-9.12h1.27Z"/><path class="cls-3" d="M566.37,154.24a1.67,1.67,0,0,1-.69,1.45,3.29,3.29,0,0,1-1.94.49,5.6,5.6,0,0,1-1.17-.1,3.11,3.11,0,0,1-.89-.3v-1.11a5.49,5.49,0,0,0,1,.36,4,4,0,0,0,1.11.17,1.82,1.82,0,0,0,1-.23.72.72,0,0,0,.32-.61A.65.65,0,0,0,565,154a1.26,1.26,0,0,0-.45-.36,6.38,6.38,0,0,0-1-.43,6.81,6.81,0,0,1-1-.49,1.93,1.93,0,0,1-.66-.6,1.6,1.6,0,0,1-.23-.88,1.46,1.46,0,0,1,.68-1.29,3.2,3.2,0,0,1,1.8-.45,4.82,4.82,0,0,1,1.1.12,5.31,5.31,0,0,1,1,.34l-.42,1a8.14,8.14,0,0,0-.87-.31,3.37,3.37,0,0,0-.9-.12c-.78,0-1.17.23-1.17.68a.58.58,0,0,0,.14.4,1.41,1.41,0,0,0,.48.33,9.09,9.09,0,0,0,1,.41,6.37,6.37,0,0,1,1,.48,1.82,1.82,0,0,1,.66.59A1.57,1.57,0,0,1,566.37,154.24Z"/><path class="cls-3" d="M627.76,141.66h-4.82v-8.57h4.82v1.11h-3.52v2.44h3.31v1.1h-3.31v2.8h3.52Z"/><path class="cls-3" d="M631,138.36l-2.2-3.17h1.45l1.54,2.33,1.54-2.33h1.44l-2.2,3.17,2.3,3.3h-1.44l-1.64-2.47-1.66,2.47h-1.44Z"/><path class="cls-3" d="M638.33,140.75a2.7,2.7,0,0,0,1-.16v1a2,2,0,0,1-.55.16,3.39,3.39,0,0,1-.7.07,2.58,2.58,0,0,1-1-.18,1.49,1.49,0,0,1-.7-.62,2.51,2.51,0,0,1-.26-1.24v-3.58h-.9v-.57l.95-.48.44-1.37h.78v1.45h1.85v1h-1.85v3.56a1,1,0,0,0,.26.78A1,1,0,0,0,638.33,140.75Z"/><path class="cls-3" d="M643.14,135.07a2.59,2.59,0,0,1,2,.79,3,3,0,0,1,.73,2.14v.7h-4.34a2.24,2.24,0,0,0,.52,1.52,1.84,1.84,0,0,0,1.4.53,4.6,4.6,0,0,0,1.11-.12,5.37,5.37,0,0,0,1-.34v1.06a4.71,4.71,0,0,1-1,.33,5.77,5.77,0,0,1-1.18.1,3.49,3.49,0,0,1-1.65-.37,2.63,2.63,0,0,1-1.13-1.11,3.69,3.69,0,0,1-.4-1.82,4.15,4.15,0,0,1,.37-1.85,2.69,2.69,0,0,1,1-1.16A2.9,2.9,0,0,1,643.14,135.07Zm0,1a1.4,1.4,0,0,0-1.1.44,2.07,2.07,0,0,0-.49,1.26h3.05a2.13,2.13,0,0,0-.36-1.23A1.28,1.28,0,0,0,643.14,136.06Z"/><path class="cls-3" d="M650.65,135.07a4,4,0,0,1,.71.06l-.14,1.19a2.25,2.25,0,0,0-.64-.08,1.77,1.77,0,0,0-.91.24,1.8,1.8,0,0,0-.68.69,2.06,2.06,0,0,0-.26,1.08v3.41h-1.27v-6.47h1l.16,1.15h0a3.07,3.07,0,0,1,.8-.89A1.93,1.93,0,0,1,650.65,135.07Z"/><path class="cls-3" d="M655.83,135.07a2.41,2.41,0,0,1,1.73.57,2.38,2.38,0,0,1,.6,1.81v4.21H656.9v-4c0-1-.44-1.51-1.33-1.51a1.48,1.48,0,0,0-1.36.58,3.2,3.2,0,0,0-.38,1.7v3.26h-1.27v-6.47h1l.19.87h.07a1.8,1.8,0,0,1,.86-.75A2.82,2.82,0,0,1,655.83,135.07Z"/><path class="cls-3" d="M662.63,135.07a2.65,2.65,0,0,1,1.81.54,2.08,2.08,0,0,1,.61,1.67v4.38h-.9l-.25-.9h0a2.93,2.93,0,0,1-.88.77,2.7,2.7,0,0,1-1.28.25,2.22,2.22,0,0,1-1.45-.47,1.8,1.8,0,0,1-.58-1.49,1.7,1.7,0,0,1,.75-1.5,4.34,4.34,0,0,1,2.29-.56l1.1,0v-.36a1.33,1.33,0,0,0-.32-1,1.35,1.35,0,0,0-.92-.29,3.29,3.29,0,0,0-.94.14,6.2,6.2,0,0,0-.88.35l-.41-.92a5.6,5.6,0,0,1,1-.41A5.1,5.1,0,0,1,662.63,135.07Zm1.16,3.48-.86,0a2.84,2.84,0,0,0-1.54.37,1.05,1.05,0,0,0-.42.89.86.86,0,0,0,.3.73,1.27,1.27,0,0,0,.78.23,1.84,1.84,0,0,0,1.24-.42,1.56,1.56,0,0,0,.5-1.26Z"/><path class="cls-3" d="M668.28,141.66H667v-9.12h1.27Z"/><path class="cls-3" d="M612.63,148.49a2.44,2.44,0,0,0-2,.88,3.66,3.66,0,0,0-.73,2.42,3.87,3.87,0,0,0,.68,2.4,2.4,2.4,0,0,0,2,.87,5.29,5.29,0,0,0,1.06-.1c.34-.07.68-.16,1-.27v1.12a5.33,5.33,0,0,1-1,.28,7.33,7.33,0,0,1-1.22.09,4,4,0,0,1-2.19-.55,3.31,3.31,0,0,1-1.3-1.53,5.93,5.93,0,0,1-.42-2.32,5.32,5.32,0,0,1,.47-2.29,3.6,3.6,0,0,1,1.39-1.55,4.11,4.11,0,0,1,2.23-.57,6,6,0,0,1,1.27.14,4.85,4.85,0,0,1,1.13.39l-.48,1.08a7.32,7.32,0,0,0-.9-.34A3.42,3.42,0,0,0,612.63,148.49Z"/><path class="cls-3" d="M622.12,152.82a3.47,3.47,0,0,1-.83,2.48,2.89,2.89,0,0,1-2.23.88,3,3,0,0,1-1.55-.39,2.69,2.69,0,0,1-1.07-1.14,3.93,3.93,0,0,1-.39-1.83,3.51,3.51,0,0,1,.81-2.48,2.92,2.92,0,0,1,2.23-.87,3.07,3.07,0,0,1,1.57.39,2.75,2.75,0,0,1,1.07,1.14A3.86,3.86,0,0,1,622.12,152.82Zm-4.76,0a3,3,0,0,0,.41,1.7,1.47,1.47,0,0,0,1.31.62,1.49,1.49,0,0,0,1.32-.62,3.73,3.73,0,0,0,0-3.4,1.52,1.52,0,0,0-1.33-.59,1.5,1.5,0,0,0-1.31.59A3,3,0,0,0,617.36,152.82Z"/><path class="cls-3" d="M631,149.47a2.19,2.19,0,0,1,1.64.57,2.5,2.5,0,0,1,.55,1.81v4.21H631.9v-4c0-1-.4-1.5-1.21-1.5a1.39,1.39,0,0,0-1.24.53,2.66,2.66,0,0,0-.37,1.53v3.48h-1.26v-4q0-1.5-1.23-1.5a1.33,1.33,0,0,0-1.25.58,3.43,3.43,0,0,0-.34,1.7v3.26h-1.27v-6.47h1l.18.87H625a1.83,1.83,0,0,1,.81-.75,2.51,2.51,0,0,1,1.08-.24,1.94,1.94,0,0,1,2,1.05h.1a1.88,1.88,0,0,1,.86-.79A2.77,2.77,0,0,1,631,149.47Z"/><path class="cls-3" d="M638.34,149.47a2.34,2.34,0,0,1,1.89.84,3.83,3.83,0,0,1,.7,2.51,3.78,3.78,0,0,1-.71,2.5,2.44,2.44,0,0,1-3.83,0h-.09q0,.21.06.51a5.11,5.11,0,0,1,0,.52v2.64h-1.27v-9.35h1l.18.87h.06a2.19,2.19,0,0,1,2-1Zm-.3,1.05a1.47,1.47,0,0,0-1.27.51,2.72,2.72,0,0,0-.38,1.59v.19a3.4,3.4,0,0,0,.36,1.73,1.41,1.41,0,0,0,1.32.6,1.27,1.27,0,0,0,1.17-.65,3.25,3.25,0,0,0,.39-1.69,3.08,3.08,0,0,0-.39-1.67A1.32,1.32,0,0,0,638,150.52Z"/><path class="cls-3" d="M645.06,149.47a2.66,2.66,0,0,1,1.82.54,2.08,2.08,0,0,1,.61,1.67v4.38h-.9l-.25-.9h-.05a2.93,2.93,0,0,1-.88.77,2.7,2.7,0,0,1-1.28.25,2.22,2.22,0,0,1-1.45-.47,1.8,1.8,0,0,1-.58-1.49,1.7,1.7,0,0,1,.75-1.5,4.34,4.34,0,0,1,2.29-.56l1.1,0v-.36a1.33,1.33,0,0,0-.32-1,1.37,1.37,0,0,0-.92-.29,3.41,3.41,0,0,0-1,.14,6.58,6.58,0,0,0-.87.35l-.41-.92a5.6,5.6,0,0,1,1.05-.41A5.08,5.08,0,0,1,645.06,149.47Zm1.17,3.48-.87,0a2.83,2.83,0,0,0-1.53.37,1.05,1.05,0,0,0-.42.89.86.86,0,0,0,.3.73,1.27,1.27,0,0,0,.78.23,1.86,1.86,0,0,0,1.24-.42,1.56,1.56,0,0,0,.5-1.26Z"/><path class="cls-3" d="M652.64,149.47a3.8,3.8,0,0,1,.7.06l-.13,1.19a2.32,2.32,0,0,0-.65-.08,1.81,1.81,0,0,0-1.59.93,2.16,2.16,0,0,0-.25,1.08v3.41h-1.28v-6.47h1l.17,1.15h0a3.07,3.07,0,0,1,.8-.89A1.91,1.91,0,0,1,652.64,149.47Z"/><path class="cls-3" d="M657.05,149.47a2.67,2.67,0,0,1,1.82.54,2.11,2.11,0,0,1,.6,1.67v4.38h-.9l-.25-.9h-.05a2.82,2.82,0,0,1-.88.77,2.67,2.67,0,0,1-1.28.25,2.25,2.25,0,0,1-1.45-.47,1.83,1.83,0,0,1-.57-1.49,1.7,1.7,0,0,1,.75-1.5,4.32,4.32,0,0,1,2.28-.56l1.11,0v-.36a1.29,1.29,0,0,0-.33-1,1.32,1.32,0,0,0-.91-.29,3.36,3.36,0,0,0-1,.14,6.58,6.58,0,0,0-.87.35l-.41-.92a5.11,5.11,0,0,1,1-.41A5,5,0,0,1,657.05,149.47Zm1.16,3.48-.86,0a2.78,2.78,0,0,0-1.53.37,1.06,1.06,0,0,0-.43.89.86.86,0,0,0,.3.73,1.27,1.27,0,0,0,.78.23,1.89,1.89,0,0,0,1.25-.42,1.56,1.56,0,0,0,.49-1.26Z"/><path class="cls-3" d="M663.76,155.15a2.7,2.7,0,0,0,1-.16v1a2,2,0,0,1-.55.16,3.33,3.33,0,0,1-.7.07,2.49,2.49,0,0,1-1-.18,1.47,1.47,0,0,1-.71-.62,2.51,2.51,0,0,1-.26-1.24v-3.58h-.9V150l1-.48.44-1.37h.78v1.45h1.85v1h-1.85v3.56a1.06,1.06,0,0,0,.26.78A1,1,0,0,0,663.76,155.15Z"/><path class="cls-3" d="M671.73,152.82a3.47,3.47,0,0,1-.83,2.48,2.91,2.91,0,0,1-2.23.88,3.06,3.06,0,0,1-1.56-.39,2.75,2.75,0,0,1-1.07-1.14,3.93,3.93,0,0,1-.39-1.83,3.51,3.51,0,0,1,.82-2.48,2.91,2.91,0,0,1,2.23-.87,3.1,3.1,0,0,1,1.57.39,2.75,2.75,0,0,1,1.07,1.14A3.86,3.86,0,0,1,671.73,152.82Zm-4.77,0a3,3,0,0,0,.42,1.7,1.69,1.69,0,0,0,2.62,0,3.65,3.65,0,0,0,0-3.4,1.76,1.76,0,0,0-2.63,0A3,3,0,0,0,667,152.82Z"/><path class="cls-3" d="M676.53,149.47a3.8,3.8,0,0,1,.7.06l-.13,1.19a2.32,2.32,0,0,0-.65-.08,1.82,1.82,0,0,0-.91.24,1.88,1.88,0,0,0-.68.69,2.16,2.16,0,0,0-.25,1.08v3.41h-1.28v-6.47h1l.17,1.15h0a3.07,3.07,0,0,1,.8-.89A1.93,1.93,0,0,1,676.53,149.47Z"/><path class="cls-3" d="M682.73,154.24a1.67,1.67,0,0,1-.69,1.45,3.29,3.29,0,0,1-1.94.49,5.73,5.73,0,0,1-1.17-.1,3.22,3.22,0,0,1-.89-.3v-1.11a5.92,5.92,0,0,0,1,.36,4,4,0,0,0,1.11.17,1.86,1.86,0,0,0,1-.23.71.71,0,0,0,.31-.61.65.65,0,0,0-.12-.39,1.26,1.26,0,0,0-.45-.36,6.66,6.66,0,0,0-1-.43,6.53,6.53,0,0,1-1.05-.49,2,2,0,0,1-.66-.6,1.6,1.6,0,0,1-.22-.88,1.45,1.45,0,0,1,.67-1.29,3.22,3.22,0,0,1,1.8-.45,5,5,0,0,1,1.11.12,5.22,5.22,0,0,1,1,.34l-.42,1a8.82,8.82,0,0,0-.86-.31,3.48,3.48,0,0,0-.9-.12c-.79,0-1.18.23-1.18.68a.63.63,0,0,0,.14.4,1.41,1.41,0,0,0,.48.33c.23.12.55.25,1,.41a6.51,6.51,0,0,1,1,.48,1.87,1.87,0,0,1,.65.59A1.57,1.57,0,0,1,682.73,154.24Z"/><path class="cls-6" d="M268.28,104.29h-15.7V120H245v-15.7H229.25V96.67H245V81h7.62V96.67h15.7ZM266.19,94h-10.9V78.25h-13v4.84h0V94h-15.7v13h15.7v15.7h13V107H271V94Z"/><path class="cls-6" d="M334.56,116.72c3.44,0,5.1,3,5.31,6.09,0,.22,0,.45,0,.67h2.82c0-.22,0-.45,0-.67.21-3.13,1.87-6.09,5.31-6.09s5.1,3,5.3,6.09c0,.22,0,.45,0,.67h2.82c0-.22,0-.45,0-.67.21-3.13,1.87-6.09,5.3-6.09,3.68,0,5.33,3.4,5.33,6.76h2.78c0-4.37-1.86-7.15-4.27-8.52a5.37,5.37,0,1,0-7.67,0,7.75,7.75,0,0,0-2.86,2.83A7.82,7.82,0,0,0,351.8,115a5.37,5.37,0,1,0-7.68,0,7.82,7.82,0,0,0-2.86,2.83A7.82,7.82,0,0,0,338.4,115a5.36,5.36,0,1,0-7.68,0c-2.4,1.37-4.27,4.15-4.27,8.52h2.79C329.24,120.12,330.88,116.72,334.56,116.72Zm26.79-8.09a2.59,2.59,0,1,1-2.58,2.58A2.59,2.59,0,0,1,361.35,108.63Zm-13.39,0a2.59,2.59,0,1,1-2.58,2.58A2.59,2.59,0,0,1,348,108.63Zm-13.4,0a2.59,2.59,0,1,1-2.58,2.58A2.59,2.59,0,0,1,334.56,108.63Z"/><polygon class="cls-6" points="346.57 103.5 349.35 103.5 349.35 98.91 365.33 98.91 365.33 96.13 330.59 96.13 330.59 98.91 346.57 98.91 346.57 103.5"/><rect class="cls-6" x="349.61" y="83.29" width="3.04" height="2.78"/><rect class="cls-6" x="349.61" y="89.11" width="3.04" height="2.78"/><rect class="cls-6" x="355.95" y="89.11" width="3.04" height="2.78"/><rect class="cls-6" x="330.59" y="89.11" width="3.04" height="2.78"/><rect class="cls-6" x="336.93" y="83.29" width="3.04" height="2.78"/><rect class="cls-6" x="336.93" y="89.11" width="3.04" height="2.78"/><rect class="cls-6" x="343.27" y="83.29" width="3.04" height="2.78"/><rect class="cls-6" x="343.27" y="89.11" width="3.04" height="2.78"/><rect class="cls-6" x="343.27" y="77.47" width="3.04" height="2.78"/><rect class="cls-6" x="362.29" y="83.29" width="3.04" height="2.78"/><rect class="cls-6" x="362.29" y="89.11" width="3.04" height="2.78"/><path class="cls-6" d="M471.82,116.89a3.54,3.54,0,0,1-6-3.09l.1-.65-3.59-3.58-6.88,6.88L449,110l-3.59,3.59.11.65a3.59,3.59,0,0,1-1,3.08,3.55,3.55,0,1,1-2.51-6.06,3.66,3.66,0,0,1,.57,0l.65.11,3.59-3.59L440,101l6.81-6.81-3.59-3.59-.65.11a3.55,3.55,0,0,1-3.08-6,3.55,3.55,0,0,1,5,0,3.57,3.57,0,0,1,1,3.08l-.11.65L449,92l8.36-8.37,5,5-.87.87a6.12,6.12,0,1,0,5.81,5.81l.87-.87,4.64,4.64-8.29,8.3,3.59,3.58.65-.1a3.55,3.55,0,0,1,3.08,6M469,108.27l-.87-.87,8.28-8.3-8.27-8.28-3.59,3.59.11.65a3.58,3.58,0,0,1-1,3.08,3.55,3.55,0,0,1-5,0,3.55,3.55,0,0,1,3.08-6l.65.11L466,88.65,457.36,80,449,88.4l-.87-.87a6.15,6.15,0,0,0-1.78-4.63,6.13,6.13,0,0,0-8.66,0,6.12,6.12,0,0,0,4.63,10.44l.87.87L436.38,101l6.79,6.8-.87.87a6.12,6.12,0,1,0,5.81,5.81l.87-.87,6.47,6.46,6.88-6.89.88.87a6.12,6.12,0,1,0,5.8-5.8"/><path class="cls-6" d="M538.66,95.54a7.75,7.75,0,1,0-7.74-7.74A7.76,7.76,0,0,0,538.66,95.54Zm0-13.18a5.44,5.44,0,1,1-5.43,5.44A5.44,5.44,0,0,1,538.66,82.36Z"/><polygon class="cls-6" points="542.73 86.49 541.09 84.85 537.67 88.28 536.49 87.1 534.86 88.74 537.67 91.55 542.73 86.49"/><path class="cls-6" d="M548.66,88.86H567.3v9.66h-6.14a9.87,9.87,0,0,1,.18,1.9c0,.14,0,.27,0,.41h8.28V86.55h-21a10.23,10.23,0,0,1,.08,1.25A9.42,9.42,0,0,1,548.66,88.86Z"/><path class="cls-6" d="M559,100.42a7.75,7.75,0,1,0-7.74,7.74A7.75,7.75,0,0,0,559,100.42Zm-7.74,5.43a5.43,5.43,0,1,1,5.43-5.43A5.43,5.43,0,0,1,551.29,105.85Z"/><polygon class="cls-6" points="550.29 100.9 549.12 99.73 547.48 101.36 550.29 104.17 555.35 99.11 553.72 97.48 550.29 100.9"/><path class="cls-6" d="M541.62,103.16a10.33,10.33,0,0,1-.38-2.31h-7.65v14.28h20.58a9.75,9.75,0,0,1-.2-2c0-.11,0-.23,0-.34H535.91v-9.66Z"/><path class="cls-6" d="M564,105.42a7.74,7.74,0,1,0,7.74,7.74A7.75,7.75,0,0,0,564,105.42Zm0,13.17a5.43,5.43,0,1,1,5.43-5.43A5.44,5.44,0,0,1,564,118.59Z"/><polygon class="cls-6" points="563.03 113.64 561.86 112.47 560.22 114.1 563.03 116.91 568.09 111.85 566.46 110.22 563.03 113.64"/><path class="cls-6" d="M642.42,104.69c7.51,0,15.08,5.75,15.08,18.62h3c0-6.5-1.84-12-5.32-15.91a16.63,16.63,0,0,0-6.9-4.67,11.27,11.27,0,1,0-11.61,0,16.63,16.63,0,0,0-6.9,4.67c-3.48,3.9-5.32,9.41-5.32,15.91h3C627.35,110.44,634.92,104.69,642.42,104.69Zm-8.31-11.61a8.32,8.32,0,1,1,8.31,8.31A8.32,8.32,0,0,1,634.11,93.08Z"/><path class="cls-6" d="M642.35,110.67a4.67,4.67,0,0,0-2.73-.87,4.73,4.73,0,0,0-4.73,4.73,5.08,5.08,0,0,0,1.59,3.51l4.82,4.83.45.43H643l5.23-5.22,0,0a5.06,5.06,0,0,0,1.58-3.51,4.73,4.73,0,0,0-7.46-3.86Zm4.51,3.86a2.28,2.28,0,0,1-.77,1.48l-3.74,3.73L638.62,116a2.28,2.28,0,0,1-.77-1.48,1.77,1.77,0,0,1,3.26-1l.44.68h1.61l.44-.68a1.77,1.77,0,0,1,3.26,1Z"/><polygon class="cls-6" points="676.68 85.08 669.24 85.08 669.24 77.65 666.29 77.65 666.29 85.08 658.86 85.08 658.86 88.03 666.29 88.03 666.29 95.47 669.24 95.47 669.24 88.03 676.68 88.03 676.68 85.08"/></svg>